<?xml version="1.0" encoding="utf-8"?>
<!DOCTYPE svg PUBLIC "-//W3C//DTD SVG 1.0//EN" "http://www.w3.org/TR/2001/REC-SVG-20010904/DTD/svg10.dtd">
<svg version="1.0" xmlns="http://www.w3.org/2000/svg" width="944px" height="833px" viewBox="0 0 944 833" preserveAspectRatio="xMidYMid meet">
 <g fill="#000000">
  <path d="M143.60 804.14 c-0.95 -0.52 -2 -1.39 -2.34 -1.91 -1.04 -1.56 -0.78 -7.90 0.61 -13.27 0.69 -2.69 1.30 -6.94 1.30 -9.46 0 -2.43 0.52 -6.25 1.21 -8.42 1.39 -4.69 1.13 -35.31 -0.43 -51.02 -0.78 -7.90 -7.46 -43.73 -7.64 -41.04 -0.09 0.52 -3.82 7.11 -8.50 14.75 -4.60 7.55 -10.06 17.70 -12.15 22.39 -2.08 4.69 -4.51 9.80 -5.38 11.28 -0.95 1.48 -2.78 6.42 -4.25 11.02 -2.95 9.63 -4.34 12.41 -9.28 19.44 -7.46 10.59 -9.11 14.32 -9.11 20.74 0 6.16 -0.61 7.20 -6.42 11.19 -1.56 1.04 -2.26 2.34 -2.26 4.08 0 4.77 -1.39 6.77 -5.38 7.90 -5.47 1.39 -14.49 0.69 -15.96 -1.39 -2.17 -2.95 -1.48 -7.64 1.74 -11.80 2.08 -2.60 3.56 -6.07 4.86 -10.76 0.95 -3.82 3.12 -9.46 4.69 -12.58 1.65 -3.12 4.16 -9.54 5.64 -14.32 4.95 -15.44 7.20 -21.52 11.45 -30.89 4.43 -9.80 7.38 -19.35 10.41 -33.32 1.04 -4.77 3.21 -12.23 4.86 -16.66 l2.95 -7.98 -2.95 -4.34 c-3.47 -4.95 -7.81 -15.01 -9.72 -22.30 -1.74 -6.85 -1.65 -15.70 0.43 -24.99 1.13 -5.21 1.48 -8.07 0.87 -8.68 -0.43 -0.43 -0.87 -2.34 -0.87 -4.16 0 -2.78 0.35 -3.47 2.17 -4.16 1.91 -0.78 2.17 -1.30 2.17 -5.47 0 -3.12 0.69 -5.90 2 -8.59 1.74 -3.47 1.82 -4.16 0.78 -6.77 -0.61 -1.56 -1.04 -4.60 -0.87 -6.85 0.26 -3.99 0.26 -3.99 3.56 -4.25 1.82 -0.17 3.82 0.17 4.43 0.61 0.87 0.69 1.48 0.61 2.17 -0.26 0.69 -0.87 0.78 -1.39 0.09 -1.82 -0.43 -0.26 -0.87 -3.12 -0.87 -6.25 l0 -5.64 4.60 0.35 4.60 0.35 2.60 -4.77 c3.47 -6.42 8.76 -9.80 16.14 -10.32 2.86 -0.26 6.59 0 8.33 0.52 1.82 0.52 4.69 1.21 6.51 1.48 2.08 0.35 4.16 1.48 5.81 3.30 5.12 5.47 9.54 11.11 9.54 12.23 0 0.61 1.13 2.60 2.60 4.43 2.08 2.60 2.60 4.16 2.60 7.38 0 2.86 0.52 4.77 1.91 6.51 1.30 1.74 2 4.16 2.43 8.59 0.35 3.38 1.30 7.46 2.17 9.02 2.43 4.69 1.48 15.36 -1.82 20.74 -2.52 4.08 -2.69 4.16 -7.29 4.43 -2.60 0.17 -5.03 0.78 -5.38 1.30 -0.35 0.61 -0.69 5.90 -0.69 11.89 0 9.98 0.17 11.37 2.60 17.61 4.34 11.02 4.95 18.05 3.04 37.40 -1.13 11.97 -1.39 19.78 -0.95 28.29 1.65 34.10 1.74 30.63 -1.21 44.77 -3.30 15.27 -4.60 27.07 -4.34 38.78 0.17 7.81 0 8.76 -1.82 10.67 -1.74 1.82 -2.69 2.08 -8.07 2.08 -3.38 0 -6.94 -0.52 -7.90 -1.04z m8.59 -8.33 c0.26 -0.35 0.09 -3.38 -0.26 -6.77 -0.61 -5.21 -0.78 -5.47 -0.87 -2 0 2.26 -0.35 5.29 -0.61 6.77 -0.52 2.52 0.61 3.82 1.74 2z m-76.18 -15.62 c1.48 -1.13 2 -2.69 2.26 -6.59 l0.43 -5.12 -2.34 4.69 c-4.16 8.24 -4.25 10.24 -0.35 7.03z m13.97 -31.06 c3.47 -5.12 5.47 -9.46 7.64 -16.23 1.56 -5.03 3.64 -10.59 4.69 -12.15 0.95 -1.65 3.47 -6.85 5.55 -11.54 2.08 -4.69 6.85 -13.88 10.67 -20.30 3.90 -6.42 7.72 -13.01 8.50 -14.66 l1.56 -2.95 -6.77 -6.77 -6.77 -6.85 -0.95 4.60 c-0.52 2.43 -2.34 8.24 -4.08 12.75 -1.74 4.51 -4.16 12.93 -5.47 18.65 -2.86 13.10 -7.55 27.68 -11.54 35.57 -2.52 5.03 -11.45 30.45 -11.45 32.45 0 0.26 0.87 -0.87 1.91 -2.52 1.04 -1.65 3.99 -6.16 6.51 -10.06z m68.98 -14.66 c0 -4.77 -0.26 -15.88 -0.61 -24.73 -0.43 -12.32 -0.26 -19.44 0.87 -30.54 1.48 -15.01 1.04 -22.39 -1.65 -27.42 -1.13 -2.08 -1.13 -2.08 -6.07 3.47 -7.38 8.07 -7.81 9.11 -6.59 16.57 0.61 3.47 2.17 11.63 3.56 18.22 3.56 17.01 5.12 31.41 5.12 46.77 0 7.29 0.26 15.44 0.61 18.05 l0.61 4.77 2.08 -8.24 c1.48 -5.90 2.08 -10.76 2.08 -16.92z m-18.22 -89.19 c3.47 -1.82 7.46 -4.16 8.85 -5.29 l2.60 -2.17 -2.34 -3.30 c-1.30 -1.82 -3.38 -4.86 -4.69 -6.68 -2 -2.78 -2.52 -4.69 -2.86 -9.98 -0.43 -6.42 -0.52 -6.51 -3.04 -7.11 -1.39 -0.35 -4.77 -1.56 -7.38 -2.69 -4.25 -1.91 -5.03 -2.08 -7.38 -1.04 -1.39 0.61 -4.43 1.13 -6.68 1.21 -4.08 0 -4.16 0 -4.16 2.86 0 1.48 0.78 6.85 1.82 11.89 1.21 6.25 1.65 11.54 1.48 16.83 -0.26 7.64 -0.26 7.81 1.91 8.50 1.21 0.35 5.21 0.52 8.85 0.35 5.73 -0.17 7.64 -0.69 13.01 -3.38z m-41.21 -23.34 c-0.17 -1.56 -0.35 -0.52 -0.35 2.34 0 2.86 0.17 4.16 0.35 2.86 0.17 -1.30 0.17 -3.64 0 -5.21z m54.92 -6.51 c-0.09 -6.77 -0.17 -7.46 -1.30 -6.07 -2.08 2.86 -2.52 8.07 -0.78 11.02 0.87 1.39 1.74 2.60 1.82 2.60 0.17 0 0.26 -3.38 0.26 -7.55z m-50.32 -9.98 c0.43 -1.39 0.43 -2.43 0 -2.43 -0.78 0 -2 3.64 -3.04 9.11 -0.35 2.08 -0.17 1.91 0.95 -0.87 0.78 -1.91 1.74 -4.51 2.08 -5.81z m31.50 -11.97 l3.21 -4.34 -2.60 0 c-2.43 0 -2.60 -0.17 -2.60 -3.47 0 -3.21 0.26 -3.56 2.69 -4.08 2.17 -0.43 2.60 -0.87 2.34 -2.60 -0.17 -1.65 -1.13 -2.43 -3.73 -3.38 -2.60 -0.87 -3.56 -0.87 -4.08 -0.09 -1.13 1.74 -0.78 4.77 0.61 5.29 0.87 0.26 1.30 1.65 1.30 3.99 0 3.04 -0.26 3.47 -2 3.47 -1.91 0 -2 0.26 -1.48 3.73 0.52 3.90 1.39 5.81 2.43 5.81 0.35 0 2.17 -1.91 3.90 -4.34z m-25.51 -6.85 c3.21 -2.08 7.46 -8.24 5.90 -8.59 -2.95 -0.61 -11.89 7.46 -11.89 10.67 0 0.78 3.56 -0.43 5.99 -2.08z m54.84 -11.02 c-1.04 -1.91 -1.82 -4.95 -1.82 -7.20 0 -2.95 -0.52 -4.43 -2.60 -6.77 -1.39 -1.56 -2.60 -3.64 -2.60 -4.51 0 -0.78 -0.95 -2.43 -2.17 -3.56 l-2.17 -2 0 6.25 c0 6.68 -1.30 10.76 -4.77 15.36 -2 2.60 -2 2.86 -0.61 4.08 0.78 0.69 2.26 1.65 3.21 2.17 1.65 0.87 1.74 0.61 1.48 -5.55 l-0.35 -6.42 3.56 0 c3.56 0 3.56 0 3.56 3.30 0 3.30 1.65 6.42 4.77 9.02 2.52 2.08 2.78 0 0.52 -4.16z m-38.70 -20.56 c2.34 -6.77 2.43 -7.46 0.52 -3.90 -2 3.56 -4.86 5.90 -7.20 5.90 -1.30 0 -1.56 0.78 -1.56 4.51 l0 4.51 3.30 -3.21 c1.91 -1.91 3.99 -5.12 4.95 -7.81z m11.71 6.25 c0 -0.43 -0.95 -0.78 -2.17 -0.78 -1.21 0 -2.17 0.52 -2.17 1.21 0 0.78 0.69 1.04 2.17 0.69 1.21 -0.17 2.17 -0.69 2.17 -1.13z m5.03 -9.46 c1.30 0 1.30 -0.09 0 -1.39 -1.82 -1.82 -3.30 -0.95 -2.60 1.56 0.26 1.04 0.61 1.48 0.87 0.87 0.17 -0.52 0.95 -1.04 1.74 -1.04z"/>
  <path d="M129.02 641.45 c-0.35 -0.26 -0.61 -3.04 -0.61 -6.07 l0 -5.55 3.73 0.26 3.64 0.26 0.26 5.90 0.26 5.81 -3.38 0 c-1.82 0 -3.64 -0.26 -3.90 -0.61z"/>
  <path d="M374.82 804.05 c-3.21 -1.65 -3.99 -4.95 -2.69 -10.85 0.61 -2.69 1.48 -8.42 1.82 -12.75 0.43 -4.25 1.13 -8.85 1.65 -10.06 1.04 -2.78 0.43 -39.39 -0.87 -51.10 -1.13 -9.54 -3.82 -23.43 -4.86 -24.29 -0.35 -0.35 -2.86 -0.87 -5.55 -1.21 l-4.86 -0.52 -4.86 8.50 c-6.51 11.54 -15.01 29.50 -17.96 37.92 -3.04 8.94 -4.25 11.37 -10.41 20.39 -6.85 10.24 -7.81 12.23 -7.81 17.53 0 7.72 -1.65 19.17 -2.78 19.96 -0.61 0.35 -2.43 0.69 -3.99 0.69 -1.65 0 -3.04 0.52 -3.30 1.21 -1.04 2.78 -12.84 4.25 -18.05 2.26 -2.08 -0.78 -2.26 -1.21 -2.26 -5.99 0 -3.56 0.43 -5.38 1.39 -6.25 1.82 -1.48 4.16 -6.42 5.55 -11.63 0.61 -2.34 2.95 -8.42 5.21 -13.45 2.34 -5.03 5.99 -14.92 8.24 -22.13 2.26 -7.11 6.25 -17.53 8.85 -23.08 3.38 -7.38 5.29 -12.93 6.85 -20.39 2.52 -11.89 4.16 -17.53 8.24 -28.72 l2.86 -7.98 -1.91 -2.43 c-2.69 -3.38 -6.51 -11.02 -8.85 -17.61 -2.95 -8.16 -3.38 -22.91 -1.04 -32.71 1.30 -5.81 1.48 -7.20 0.43 -7.55 -0.69 -0.26 -1.13 -1.91 -1.13 -4.34 0 -3.30 0.26 -3.90 2.17 -4.34 1.91 -0.52 2.17 -1.04 2.17 -4.25 0 -5.03 1.39 -9.54 3.47 -11.45 1.65 -1.48 1.65 -1.74 0.43 -3.64 -0.95 -1.39 -1.30 -3.64 -1.13 -7.03 0.26 -4.95 0.26 -4.95 3.21 -5.21 1.56 -0.17 3.30 0.09 3.82 0.61 0.61 0.61 1.39 0.61 2.52 0 1.48 -0.78 1.48 -0.95 0.26 -2.26 -1.04 -0.95 -1.30 -2.69 -1.13 -6.25 l0.26 -4.86 4.69 0 c4.60 0 4.60 0 6.59 -3.90 2.60 -5.12 6.07 -8.33 10.76 -9.98 4.25 -1.48 11.97 -1.74 15.01 -0.52 1.13 0.52 3.47 1.04 5.29 1.39 4.51 0.69 12.15 8.42 15.10 15.18 0.69 1.65 2.26 3.90 3.38 4.95 1.65 1.56 2.08 2.78 2.08 6.33 0 3.30 0.52 5.21 2.17 7.64 1.65 2.52 2.17 4.25 2.17 8.16 0 3.47 0.52 5.90 1.74 7.81 2.78 4.51 2.43 15.27 -0.61 21.34 -2.52 5.03 -4.16 5.81 -10.15 5.21 l-3.73 -0.43 -0.61 7.03 c-0.95 12.84 -0.69 14.75 3.12 24.55 3.56 9.37 3.64 9.37 3.64 21.52 0.09 6.68 -0.43 19.26 -1.04 27.94 -1.04 14.06 -0.95 17.18 0.26 27.68 1.74 14.49 1.04 22.73 -3.56 41.65 -3.04 12.41 -3.12 13.36 -2.69 23.95 0.52 12.67 -0.17 16.49 -3.38 17.87 -2.86 1.39 -11.54 1.30 -14.23 -0.09z m8.76 -15.01 c-0.17 -2.78 -0.52 -3.64 -1.04 -2.86 -1.13 1.91 -0.95 6.85 0.35 6.85 0.69 0 0.95 -1.21 0.69 -3.99z m-76.87 -8.68 c2.78 -1.82 2.78 -2.95 0.09 -2.95 -1.48 0 -2.17 0.61 -2.43 2.17 -0.52 2.52 -0.43 2.60 2.34 0.78z m12.84 -29.15 c3.99 -5.99 6.42 -10.76 8.42 -16.75 2.69 -8.16 13.36 -31.24 17.70 -38.26 l2.26 -3.64 -2 -0.43 c-1.04 -0.26 -3.73 -0.78 -5.99 -1.04 -4.69 -0.69 -4.16 -1.56 -6.77 11.28 -2.26 11.19 -3.82 15.79 -8.07 24.29 -2.60 5.29 -11.89 31.24 -11.89 33.32 0 0.69 0.69 -0.26 6.33 -8.76z m70.37 -10.59 c1.04 -6.59 1.04 -9.02 -0.09 -17.35 -0.69 -5.29 -1.13 -13.62 -0.95 -18.48 l0.35 -8.94 -4.51 0 -4.51 0 0.87 3.64 c2.08 9.63 3.30 22.39 3.30 36.79 0 8.68 0.26 17.61 0.61 19.96 l0.61 4.25 1.56 -6.07 c0.87 -3.30 2.08 -9.54 2.78 -13.80z m-18.39 -95.35 c3.47 -1.65 7.46 -4.25 8.85 -5.73 l2.52 -2.69 -4.16 -5.38 c-2.34 -3.04 -4.43 -6.77 -4.69 -8.33 l-0.52 -2.86 -13.80 -0.35 -13.71 -0.43 0.69 3.73 c0.35 2 0.78 8.33 0.78 14.06 0.09 10.24 0.09 10.32 2.17 11.02 1.21 0.35 5.21 0.52 8.85 0.35 5.64 -0.17 7.72 -0.69 13.01 -3.38z m-41.21 -22.04 c-0.26 -0.87 -0.43 -0.17 -0.43 1.48 0 1.65 0.17 2.34 0.43 1.56 0.17 -0.87 0.17 -2.26 0 -3.04z m54.40 -14.84 c-0.09 -0.09 -0.78 1.13 -1.56 2.78 -1.65 3.56 -1.74 6.07 -0.26 8.59 0.95 1.65 1.13 1.13 1.48 -4.60 0.26 -3.56 0.43 -6.59 0.35 -6.77z m-49.46 -2.52 c0.35 -1.13 0.26 -2 -0.17 -2 -0.87 0 -3.73 9.11 -3.56 11.37 0 1.04 1.91 -3.56 3.73 -9.37z m31.24 -11.97 l3.12 -4.77 -2.60 0 c-2.43 0 -2.60 -0.17 -2.60 -3.47 0 -3.38 0.09 -3.47 2.86 -3.47 2.78 0 2.86 -0.09 2.52 -3.04 -0.26 -2.34 -0.78 -3.04 -2.08 -3.04 -0.95 0 -2.43 -0.43 -3.38 -0.87 -1.39 -0.78 -1.82 -0.61 -2.60 1.48 -0.69 1.91 -0.61 2.60 0.43 3.38 0.87 0.61 1.39 2.34 1.39 4.60 0 3.04 -0.26 3.56 -1.82 3.56 -1.74 0 -1.82 0.35 -1.21 4.16 0.52 3.38 1.65 6.25 2.60 6.25 0.09 0 1.65 -2.17 3.38 -4.77z m-25.94 -6.51 c2.34 -1.48 7.38 -7.64 7.38 -9.11 0 -0.26 -0.78 -0.43 -1.74 -0.43 -0.95 0 -1.74 0.26 -1.74 0.69 0 0.35 -1.39 1.39 -3.04 2.26 -2.95 1.56 -4.77 3.73 -5.90 6.85 -0.78 2 1.48 1.91 5.03 -0.26z m43.12 -13.45 l-0.35 -6.51 3.47 0 3.38 0 0.52 3.99 c0.52 4.69 4.95 10.24 6.77 8.42 0.69 -0.69 0.43 -1.65 -0.95 -3.56 -1.21 -1.65 -2.17 -4.43 -2.43 -7.29 -0.26 -3.12 -1.04 -5.38 -2.43 -7.03 -1.13 -1.39 -2.08 -2.86 -2.08 -3.38 0 -0.52 -0.87 -2.34 -1.91 -4.08 l-2 -3.12 -0.52 6.51 c-0.52 6.68 -3.38 13.97 -6.42 16.49 -1.21 1.04 -1.13 1.39 0.95 3.64 3.73 3.82 4.34 3.21 3.99 -4.08z m-25.94 -19.78 c2.86 -7.20 2.52 -8.68 -0.69 -2.43 -1.74 3.56 -2.78 4.60 -4.77 5.03 -2.26 0.43 -2.60 0.87 -2.60 3.30 0 1.65 -0.26 3.64 -0.61 4.51 -0.43 1.04 0.52 0.61 2.78 -1.39 2.34 -2.08 4.16 -4.86 5.90 -9.02z m11.02 7.11 c0 -0.43 -0.95 -0.78 -2.17 -0.78 -1.21 0 -2.17 0.52 -2.17 1.21 0 0.78 0.69 1.04 2.17 0.69 1.21 -0.17 2.17 -0.69 2.17 -1.13z m6.07 -9.63 c0.95 -0.26 0.78 -0.69 -0.78 -1.48 -1.48 -0.78 -2.26 -0.87 -2.95 -0.17 -0.69 0.69 -0.69 0.95 0.09 0.95 0.61 0 1.04 0.69 1.04 1.56 0 0.87 0.26 1.13 0.69 0.52 0.35 -0.52 1.21 -1.13 1.91 -1.39z"/>
  <path d="M360.68 641.45 c-0.35 -0.26 -0.61 -3.04 -0.61 -6.07 l0 -5.55 3.30 0.26 3.21 0.26 0.26 5.90 0.26 5.81 -2.95 0 c-1.56 0 -3.21 -0.26 -3.47 -0.61z"/>
  <path d="M605.88 803.88 c-2.78 -1.13 -2.86 -1.39 -2.86 -6.16 0 -2.78 0.61 -6.94 1.21 -9.37 1.39 -4.77 3.64 -21.52 3.38 -24.38 -0.17 -0.95 -0.35 -12.67 -0.52 -26.03 -0.35 -23.34 -0.43 -24.73 -2.86 -34.01 -2.43 -9.80 -2.43 -9.80 -5.12 -9.80 -1.39 0 -3.99 -0.35 -5.81 -0.78 l-3.12 -0.69 -5.99 10.50 c-3.30 5.73 -6.51 11.89 -7.20 13.54 -0.61 1.65 -2.60 5.99 -4.43 9.54 -1.74 3.64 -4.08 9.54 -5.21 13.01 -2.34 7.90 -4.08 11.63 -9.46 19.52 -7.72 11.45 -8.33 13.36 -9.02 26.46 -0.35 6.42 -0.87 11.97 -1.04 12.32 -0.26 0.35 -2 0.69 -3.90 0.69 -2.17 0 -3.99 0.61 -5.03 1.65 -2.95 2.95 -15.70 3.47 -18.91 0.78 -1.91 -1.56 -1.39 -8.42 0.87 -11.45 3.04 -3.99 4.08 -6.16 5.90 -12.67 0.87 -3.21 3.21 -9.11 5.12 -13.10 1.91 -3.99 5.55 -13.54 7.98 -21.17 2.34 -7.64 5.81 -16.83 7.64 -20.39 4.43 -8.85 7.29 -17.70 9.98 -30.28 1.30 -5.90 3.90 -14.92 5.81 -20.04 l3.56 -9.37 -2.69 -3.38 c-1.48 -1.82 -4.34 -7.38 -6.33 -12.41 -3.38 -8.50 -3.64 -9.80 -3.99 -19.09 -0.26 -7.46 0.09 -11.89 1.30 -17.53 1.21 -6.07 1.30 -7.64 0.43 -7.64 -0.78 0 -1.13 -1.30 -1.13 -4.25 0 -3.82 0.26 -4.34 2 -4.60 1.74 -0.26 2 -0.87 2.43 -6.59 0.35 -4.51 0.95 -6.94 2.34 -8.85 1.82 -2.43 1.91 -2.78 0.61 -5.21 -0.87 -1.65 -1.30 -4.25 -1.13 -6.77 l0.26 -4.08 4.77 -0.09 c6.42 -0.17 6.33 -0.09 4.77 -2.43 -0.95 -1.39 -1.30 -3.56 -1.13 -6.33 l0.26 -4.16 4.69 0 4.77 0 2.86 -4.95 c3.82 -6.51 8.59 -9.37 16.40 -10.06 3.12 -0.17 7.11 0 8.85 0.52 1.74 0.52 4.43 1.21 5.81 1.48 3.12 0.61 11.89 9.54 14.49 14.75 0.95 1.91 2.60 4.34 3.56 5.38 1.21 1.39 1.91 3.56 2.17 6.94 0.26 3.21 1.04 5.90 2.26 7.46 1.39 1.82 1.82 3.90 2 8.07 0.09 3.38 0.69 6.33 1.48 7.46 2.17 3.12 1.91 16.40 -0.43 21.26 -2.26 4.77 -4.25 5.73 -9.98 5.29 l-4.69 -0.43 0 12.58 c0 11.89 0.09 12.75 2.52 18.22 1.39 3.21 3.04 7.55 3.64 9.72 1.48 5.55 1.30 19.52 -0.52 38.52 -1.39 14.49 -1.39 17.27 -0.35 23.86 0.61 4.08 1.13 12.58 1.04 18.74 0 9.72 -0.52 13.27 -3.30 25.60 -2.86 12.75 -3.30 15.79 -3.47 27.76 -0.09 7.38 -0.26 13.97 -0.26 14.58 -0.43 3.12 -11.89 4.69 -17.27 2.34z m8.50 -14.58 c-0.35 -5.29 -0.95 -5.12 -0.95 0.26 0 2.52 0.26 4.34 0.61 3.99 0.35 -0.35 0.52 -2.26 0.35 -4.25z m-74.70 -10.76 c-0.09 -0.35 -0.87 -0.95 -1.74 -1.30 -1.21 -0.43 -1.82 0 -2.52 2.08 -1.48 4.16 -1.13 4.51 1.65 2.08 1.48 -1.21 2.60 -2.52 2.60 -2.86z m13.10 -30.71 l3.47 -5.12 -2.69 0 c-1.39 0 -2.86 0 -3.21 -0.09 -0.35 0 -1.82 3.82 -3.38 8.50 -1.48 4.69 -3.04 9.28 -3.38 10.24 -0.35 0.95 0.78 -0.52 2.52 -3.30 1.74 -2.86 4.77 -7.38 6.68 -10.24z m67.16 -0.52 c0.43 -1.74 0.09 -2 -2.26 -2 l-2.78 0 0.61 4.60 c0.26 2.43 0.52 6.51 0.61 8.85 l0 4.34 1.74 -6.94 c0.87 -3.82 1.82 -7.81 2.08 -8.85z m-17.79 -101.43 c3.12 -1.48 7.20 -3.99 8.94 -5.47 3.64 -3.21 3.56 -3.47 -1.65 -10.41 -1.65 -2.08 -3.12 -5.03 -3.47 -6.59 l-0.52 -2.86 -14.23 -0.61 c-7.90 -0.35 -14.49 -0.52 -14.66 -0.35 -0.09 0.17 0.35 3.30 1.04 6.85 0.69 3.64 1.13 9.80 0.95 13.80 -0.26 7.20 -0.17 7.38 1.91 7.98 1.21 0.43 5.29 0.61 9.11 0.52 5.73 -0.17 7.90 -0.69 12.58 -2.86z m-4.51 -51.97 c1.56 -2.17 2.78 -4.16 2.78 -4.34 0 -0.26 -1.13 -0.43 -2.60 -0.43 -1.39 0 -2.60 -0.35 -2.60 -0.78 0 -0.35 -0.95 -0.52 -2.17 -0.26 -2 0.35 -2.17 0.69 -1.65 3.56 1.21 7.55 2.26 7.90 6.25 2.26z m-25.16 -7.20 c2.95 -1.91 7.55 -8.85 5.90 -8.85 -1.74 0 -8.85 4.86 -10.50 7.20 -2.86 4.16 -0.52 5.03 4.60 1.65z m28.55 -5.73 c0.87 -0.87 -0.95 -4.86 -2.26 -4.86 -0.78 0 -2.26 -0.61 -3.30 -1.30 -1.74 -1.21 -1.91 -1.13 -2.78 1.48 -1.30 3.56 -1.21 4.16 0.35 4.16 0.78 0 1.56 0.52 1.82 1.21 0.35 0.95 1.13 1.04 3.12 0.43 1.48 -0.35 2.86 -0.87 3.04 -1.13z m26.38 -5.38 c-1.30 -1.65 -1.82 -3.56 -1.82 -6.42 0 -3.21 -0.52 -4.77 -2.60 -7.38 -1.39 -1.82 -2.60 -3.82 -2.60 -4.43 0 -0.61 -0.95 -2.26 -2.17 -3.56 l-2.08 -2.43 -0.09 6.07 c-0.09 7.03 -1.39 11.28 -4.86 15.79 l-2.34 3.12 2.34 2.08 c3.47 2.95 4.16 2.60 3.47 -2.26 -0.26 -2.43 -0.26 -5.38 0 -6.59 0.52 -2 0.95 -2.26 3.82 -2 2.69 0.26 3.21 0.61 3.47 2.43 0.52 4.77 1.21 6.33 3.90 8.76 2.60 2.43 2.78 2.43 3.04 0.78 0.17 -0.95 -0.52 -2.78 -1.48 -3.99z m-43.73 -12.67 c2.52 -2.78 5.64 -8.76 7.29 -14.06 0.95 -3.21 0.09 -2.34 -2.69 2.78 -1.56 2.95 -2.95 4.34 -4.95 4.86 -2.52 0.78 -2.78 1.13 -3.04 5.03 -0.09 2.26 -0.09 4.16 0.26 4.16 0.26 0 1.65 -1.30 3.12 -2.78z m15.88 -2.08 c0 -0.69 -0.78 -1.21 -1.74 -1.21 -1.13 0 -1.74 0.61 -1.74 1.65 0 1.21 0.43 1.56 1.74 1.21 0.95 -0.26 1.74 -1.04 1.74 -1.65z m6.77 -10.41 c-0.87 -0.87 -2 -1.21 -2.95 -0.87 -1.39 0.52 -1.39 0.69 -0.35 1.39 0.69 0.52 2.08 0.87 3.04 0.87 1.56 0 1.56 -0.09 0.26 -1.39z"/>
  <path d="M591.47 641.54 c-0.35 -0.35 -0.61 -2.95 -0.61 -5.73 l0 -5.03 3.47 0 c3.90 0 4.69 1.39 4.16 7.46 -0.26 3.21 -0.43 3.38 -3.30 3.64 -1.74 0.17 -3.38 0 -3.73 -0.35z"/>
  <path d="M832.07 803.01 c-1.04 -1.30 -0.95 -4.08 0.69 -22.13 0.43 -4.51 1.39 -9.63 2.17 -11.37 1.21 -2.78 1.30 -4.60 0.52 -13.88 -0.52 -5.90 -0.78 -14.06 -0.52 -18.13 0.43 -7.90 -1.30 -25.94 -3.21 -33.84 -0.69 -2.60 -1.48 -5.81 -1.74 -7.11 -0.43 -2 -1.04 -2.43 -3.38 -2.43 -1.48 0 -4.25 -0.35 -6.07 -0.78 l-3.30 -0.78 -2.17 4.43 c-1.30 2.43 -3.56 6.42 -5.21 8.85 -1.65 2.43 -4.16 7.55 -5.64 11.37 -1.48 3.73 -3.38 7.98 -4.25 9.46 -1.56 2.60 -2.08 3.82 -6.59 16.05 -1.30 3.56 -4.60 10.06 -7.29 14.32 -10.50 16.83 -9.89 14.75 -10.32 34.53 l-0.09 5.81 -4.16 0 c-3.38 0 -4.25 0.35 -4.95 2 -0.78 1.74 -1.56 1.91 -8.24 2.17 -10.93 0.35 -11.28 0.17 -11.28 -5.38 0 -3.82 0.43 -5.21 2.52 -7.81 2.17 -2.78 4.43 -9.28 4.43 -13.01 0 -0.61 1.39 -3.38 3.12 -6.25 1.82 -2.95 5.64 -12.49 9.02 -22.47 3.21 -9.54 7.29 -20.48 9.11 -24.29 4.69 -10.06 8.07 -20.56 9.72 -29.93 1.13 -7.03 6.59 -24.47 8.85 -28.55 0.61 -0.87 0 -2.34 -2 -4.86 -3.99 -4.95 -9.89 -19.78 -11.02 -27.76 -0.95 -6.77 -0.35 -13.27 2.17 -24.03 0.95 -4.25 0.95 -5.03 0 -5.03 -0.87 0 -1.21 -1.21 -1.21 -4.16 0 -3.38 0.35 -4.25 2 -4.95 1.56 -0.69 2 -1.74 2.52 -6.68 0.35 -3.90 1.21 -6.77 2.43 -8.42 1.39 -2.08 1.65 -3.04 0.87 -4.34 -0.43 -0.95 -0.87 -4.08 -0.87 -6.94 l0 -5.29 3.30 0 c1.82 0 3.73 0.43 4.16 0.87 0.69 0.69 1.30 0.52 2.08 -0.43 0.87 -1.04 0.87 -1.65 0.17 -2.34 -0.61 -0.61 -1.04 -3.38 -1.04 -6.16 l0 -5.12 4.86 0.35 4.77 0.43 2.17 -4.16 c5.12 -10.24 13.88 -13.10 29.24 -9.54 2.26 0.52 4.95 1.48 5.90 2.17 2.60 1.82 10.06 11.28 10.76 13.62 0.35 1.13 1.56 3.12 2.78 4.34 1.56 1.65 2.26 3.64 2.60 7.38 0.35 3.47 1.04 5.73 2.26 7.11 1.39 1.48 1.91 3.47 2.17 7.81 0.17 3.38 1.04 7.38 2.08 9.54 3.38 7.20 0.61 21.69 -4.69 24.55 -1.13 0.61 -3.56 0.78 -6.42 0.43 l-4.60 -0.52 -0.26 11.89 c-0.26 10.76 -0.09 12.41 1.65 16.40 5.03 11.80 5.73 16.05 5.21 30.63 -0.26 7.46 -0.95 18.57 -1.48 24.73 -0.95 9.80 -0.87 12.67 0.43 22.39 2.26 16.23 1.48 24.12 -5.21 53.62 -0.78 3.47 -1.30 10.24 -1.30 17.35 0 15.44 -0.09 15.62 -9.89 15.62 -5.38 0 -7.55 -0.35 -8.33 -1.30z m-4.86 -156.09 c6.25 -2.26 14.40 -7.90 14.40 -10.06 0 -0.69 -1.82 -3.38 -4.08 -5.99 -2.43 -2.86 -4.25 -5.81 -4.51 -7.64 l-0.52 -2.95 -14.23 -0.35 -14.14 -0.26 0.69 2.69 c0.35 1.56 0.69 7.81 0.87 14.06 0.17 13.01 -0.35 12.32 10.06 12.49 4.08 0.09 7.46 -0.52 11.45 -2z m0.52 -57.35 c0 -0.26 -1.13 -0.43 -2.60 -0.43 -1.39 0 -2.60 -0.35 -2.60 -0.87 0 -0.43 -0.95 -0.87 -2.17 -0.87 -2.43 0 -2.69 1.13 -1.21 6.51 1.39 5.12 2.52 5.21 5.73 0.43 1.56 -2.34 2.86 -4.51 2.86 -4.77z m-27.42 -2.86 c2.08 -1.82 6.59 -7.98 6.59 -9.02 0 -0.35 -0.78 -0.69 -1.74 -0.69 -0.95 0 -1.74 0.35 -1.74 0.87 0 0.43 -1.56 1.82 -3.47 3.04 -2.95 1.82 -6.07 5.90 -6.07 7.90 0 0.95 4.69 -0.61 6.42 -2.08z m28.11 -7.29 c-0.17 -2.17 -0.87 -2.78 -3.73 -3.82 -3.90 -1.30 -3.56 -1.39 -4.60 1.30 -1.13 3.04 1.91 5.81 5.73 5.38 2.60 -0.26 2.86 -0.52 2.60 -2.86z m14.14 -5.12 l-0.26 -6.94 3.30 0.26 c3.30 0.26 3.38 0.35 3.90 3.99 0.61 4.51 5.47 10.24 6.85 8.07 0.52 -0.87 0.09 -2.08 -1.39 -3.82 -1.56 -1.91 -2.08 -3.47 -2.08 -6.68 0 -3.12 -0.52 -4.86 -2 -6.68 -1.13 -1.30 -2.52 -3.64 -3.12 -5.21 -2.17 -5.47 -3.30 -5.12 -3.90 1.13 -0.61 5.55 -3.47 12.84 -6.33 16.14 -0.69 0.78 -1.04 1.91 -0.69 2.43 0.43 0.69 4.16 3.38 6.07 4.34 0 0 -0.17 -3.12 -0.35 -7.03z m-27.94 -15.27 c0.09 -1.04 2.08 -5.73 4.95 -11.97 l1.21 -2.60 -2.17 2.60 c-1.21 1.48 -2.17 3.04 -2.17 3.64 0 2 -4.51 6.33 -6.59 6.33 -1.91 0 -2.08 0.35 -2.08 4.43 l0 4.43 3.38 -2.86 c1.91 -1.65 3.47 -3.47 3.47 -3.99z m13.10 2.26 c0 -0.43 -0.95 -0.78 -2.17 -0.78 -1.21 0 -2.17 0.52 -2.17 1.21 0 0.78 0.69 1.04 2.17 0.69 1.21 -0.17 2.17 -0.69 2.17 -1.13z m5.73 -10.76 c-1.91 -1.48 -3.12 -1.65 -3.12 -0.61 0 1.21 1.04 1.91 2.95 1.91 1.82 -0.09 1.82 -0.09 0.17 -1.30z"/>
  <path d="M818.63 638.33 c-0.35 -2.08 -0.43 -4.77 -0.26 -5.90 0.26 -1.82 0.69 -2.08 3.73 -2.08 l3.47 0 0.26 5.90 0.26 5.81 -3.47 0 c-3.38 0 -3.47 -0.09 -3.99 -3.73z"/>
  <path d="M141.43 401.98 c-4.16 -0.87 -4.60 -1.82 -3.99 -9.37 1.30 -17.18 2.08 -23.60 3.38 -26.12 1.21 -2.26 1.30 -3.99 0.52 -12.58 -0.43 -5.47 -0.69 -14.92 -0.61 -21.17 0.17 -6.85 -0.17 -13.19 -0.87 -16.14 l-1.13 -4.86 -6.68 -0.95 c-9.20 -1.30 -17.70 -2.69 -19.35 -3.21 -1.04 -0.35 -1.91 0.87 -3.38 4.95 -1.04 3.04 -3.38 8.42 -5.21 11.97 -1.74 3.56 -4.25 9.72 -5.55 13.54 -1.39 4.34 -4.43 10.32 -7.55 15.18 -9.54 14.84 -10.06 16.14 -10.76 29.41 -0.35 7.11 -1.04 11.97 -1.65 12.32 -0.52 0.35 -2.17 0.69 -3.56 0.69 -1.56 0 -3.30 0.69 -4.16 1.74 -1.39 1.65 -2.34 1.74 -10.41 1.56 l-8.85 -0.26 -0.26 -4.86 c-0.17 -4.16 0.09 -5.29 2 -7.55 2.69 -3.21 4.25 -6.94 5.55 -13.36 0.61 -2.69 2.17 -6.59 3.56 -8.68 1.39 -2.17 4.69 -10.50 7.46 -19 2.69 -8.33 6.59 -19 8.76 -23.77 4.69 -10.32 7.29 -17.61 6.51 -18.13 -0.35 -0.17 -2.43 -0.61 -4.69 -0.87 -4.16 -0.61 -4.16 -0.61 -4.16 -3.99 0 -2.43 1.13 -5.21 3.90 -9.89 6.51 -11.02 8.42 -15.36 10.85 -24.55 1.91 -7.29 2.08 -8.94 1.04 -9.11 -1.21 -0.26 -3.47 -6.77 -7.55 -22.30 -2.52 -9.54 -2.60 -11.54 -0.78 -23.08 0.69 -4.77 1.65 -11.63 1.91 -15.18 0.52 -5.90 0.78 -6.51 2.60 -6.77 1.04 -0.17 1.91 -0.52 1.91 -0.87 0.52 -7.29 1.82 -13.45 3.38 -15.62 1.65 -2.43 1.74 -2.78 0.43 -5.21 -0.78 -1.65 -1.21 -4.34 -1.04 -6.85 0.26 -4.16 0.26 -4.16 3.56 -4.43 1.82 -0.17 3.82 0.09 4.43 0.61 0.61 0.52 1.48 0.52 2.26 0.09 1.04 -0.69 1.13 -1.13 0.26 -2.60 -0.61 -0.95 -1.13 -3.90 -1.13 -6.59 l0 -4.86 4.86 0.35 4.77 0.43 2.52 -5.03 c2.86 -5.55 5.99 -8.24 11.89 -9.98 5.21 -1.56 9.98 -1.56 13.88 0.09 1.65 0.69 3.82 1.30 4.77 1.30 0.87 0 2.78 0.61 4.08 1.30 2.86 1.48 10.67 11.11 12.49 15.36 0.69 1.56 2.08 3.64 3.12 4.51 1.39 1.30 1.82 2.69 1.82 6.16 0 3.38 0.52 5.12 2.17 7.38 1.74 2.34 2.17 3.99 2.17 8.16 0 3.82 0.52 5.99 1.74 7.90 1.39 2.08 1.74 4.08 1.74 10.32 0 6.68 -0.26 8.16 -2.34 11.89 -2 3.47 -2.86 4.25 -5.55 4.69 -1.74 0.35 -4.60 0.26 -6.33 0 l-3.12 -0.61 -0.17 9.80 c-0.26 14.92 -0.17 15.70 3.38 24.38 3.30 7.98 3.30 8.16 3.30 20.22 0 6.68 -0.52 19.17 -1.13 27.76 -1.04 14.14 -1.04 16.92 0.35 29.33 1.74 15.70 1.30 21.34 -3.30 40.95 -2.26 9.54 -2.69 13.54 -3.04 26.20 -0.43 12.84 -0.69 15.10 -2 16.31 -1.65 1.48 -9.20 2.34 -13.01 1.56z m-13.54 -221.08 c0.09 -4.25 0.09 -4.34 3.12 -4.77 2.69 -0.35 3.04 -0.78 3.30 -3.12 0.26 -2.43 0 -2.78 -2.17 -3.21 -1.30 -0.26 -3.30 -0.69 -4.25 -1.04 -1.48 -0.43 -2 -0.17 -2.43 1.82 -0.35 1.30 -0.26 2.69 0.26 3.21 0.52 0.52 0.95 2.43 0.95 4.25 0 2.60 -0.35 3.30 -1.56 3.30 -1.39 0 -1.48 0.43 -0.69 4.86 l0.95 4.86 1.21 -2.86 c0.69 -1.65 1.30 -4.86 1.30 -7.29z m-22.30 -0.61 c1.39 -1.13 6.33 -8.07 6.33 -8.85 0 -2.26 -10.41 4.08 -12.15 7.29 -1.74 3.21 -1.13 4.25 1.82 3.47 1.48 -0.43 3.30 -1.30 3.99 -1.91z m42.78 -8.59 c-1.04 -3.56 -1.13 -8.59 -0.09 -10.15 0.43 -0.69 1.91 -1.04 3.64 -0.87 2.78 0.26 2.95 0.43 3.56 4.51 0.52 3.82 3.99 9.20 5.99 9.20 1.56 0 1.48 -2.95 -0.26 -5.21 -1.04 -1.48 -2 -4.34 -2.26 -7.11 -0.17 -2.60 -1.04 -5.29 -1.91 -6.33 -0.87 -0.95 -2.26 -3.12 -3.04 -4.77 -0.87 -1.65 -2.26 -3.99 -3.12 -5.12 -1.65 -2.08 -1.65 -2.08 -1.65 4.60 0 7.11 -1.13 10.85 -4.86 16.31 -1.21 1.74 -2 3.64 -1.65 4.16 0.69 1.13 5.81 4.43 6.25 3.99 0.09 -0.09 -0.17 -1.56 -0.61 -3.21z m-31.67 -15.62 c1.65 -1.48 3.04 -3.47 3.04 -4.34 0 -0.87 1.56 -4.60 3.38 -8.24 2.43 -4.69 2.86 -6.07 1.65 -4.95 -0.95 0.87 -2.78 3.64 -3.99 6.16 -1.65 3.56 -2.69 4.69 -4.60 5.12 -2.17 0.43 -2.43 0.87 -2.69 4.69 -0.09 2.34 -0.17 4.25 -0.09 4.25 0.09 0 1.56 -1.21 3.30 -2.69z m16.05 -1.65 c0 -0.35 -0.95 -0.87 -2.17 -1.04 -2 -0.43 -2.95 0.78 -1.65 2.08 0.61 0.69 3.82 -0.17 3.82 -1.04z m5.90 -10.50 c1.13 0 0.95 -0.26 -0.52 -0.95 -1.48 -0.69 -2.26 -0.69 -2.95 0 -0.78 0.78 -0.78 1.04 0 1.04 0.61 0 1.13 0.69 1.13 1.56 0.09 1.39 0.17 1.39 0.52 0 0.17 -0.87 1.04 -1.56 1.82 -1.65z"/>
  <path d="M373.35 401.98 c-3.21 -0.61 -3.90 -2.34 -3.47 -8.24 1.04 -14.14 2.52 -24.47 3.73 -26.90 1.21 -2.43 1.30 -4.16 0.43 -15.10 -0.61 -6.77 -0.78 -15.79 -0.52 -20.04 0.35 -4.95 0.09 -9.72 -0.61 -13.71 l-1.21 -6.07 -6.51 -0.95 c-3.47 -0.43 -7.03 -1.13 -7.72 -1.39 -0.69 -0.35 -3.47 -0.78 -6.25 -1.04 -2.69 -0.26 -5.47 -0.69 -6.16 -1.04 -0.87 -0.26 -1.48 0.35 -1.82 2 -0.35 1.30 -2.69 6.85 -5.21 12.41 -2.60 5.47 -5.73 13.19 -7.03 17.18 -1.56 4.77 -4.25 10.06 -8.16 16.05 -8.33 12.49 -9.63 15.36 -9.63 20.74 0 2.52 -0.26 7.81 -0.61 11.80 l-0.52 7.11 -4.16 0 c-3.56 0 -4.25 0.26 -4.25 1.65 0 0.87 -0.61 1.91 -1.39 2.17 -2.52 0.95 -17.27 0.61 -18.39 -0.52 -0.61 -0.61 -1.04 -2.69 -1.04 -4.69 0 -2.86 0.61 -4.43 3.04 -7.29 1.65 -2 3.38 -5.12 3.90 -7.03 0.43 -1.82 1.30 -5.03 1.82 -7.03 0.52 -2.08 2 -5.47 3.38 -7.64 1.39 -2.17 5.21 -11.89 8.50 -21.69 3.30 -9.80 7.03 -19.96 8.42 -22.56 3.21 -6.25 6.68 -15.53 6.07 -16.40 -0.17 -0.43 -2.34 -0.95 -4.77 -1.30 l-4.34 -0.61 0 -3.47 c0 -2.43 0.78 -4.60 2.52 -7.11 4.51 -6.59 10.24 -19.17 12.23 -26.81 1.74 -6.68 1.82 -7.72 0.61 -8.85 -0.69 -0.69 -1.56 -2.78 -1.82 -4.60 -0.35 -1.82 -2 -7.46 -3.64 -12.58 -2.52 -8.07 -2.95 -10.50 -2.95 -17.79 0.09 -4.69 0.61 -11.63 1.39 -15.44 0.69 -3.82 1.56 -9.20 1.82 -11.97 0.43 -4.25 0.87 -5.21 2.52 -5.90 1.82 -0.61 2.08 -1.30 2.08 -5.55 0 -5.21 1.48 -9.72 3.73 -11.54 1.30 -1.04 1.30 -1.39 0.09 -3.21 -0.87 -1.39 -1.21 -3.64 -1.04 -7.11 l0.26 -5.03 4.77 -0.09 c6.42 -0.09 6.59 -0.09 4.86 -2 -1.13 -1.21 -1.39 -2.86 -1.21 -6.68 0.26 -5.03 0.26 -5.12 3.04 -5.38 1.56 -0.17 3.56 0.17 4.51 0.69 1.56 0.78 2 0.43 3.90 -3.30 2.95 -5.81 7.03 -9.54 12.15 -11.02 5.47 -1.65 10.15 -1.65 14.14 0 1.65 0.69 3.90 1.30 4.95 1.30 0.95 0 3.04 0.78 4.51 1.65 3.12 1.91 10.24 10.85 12.06 15.01 0.61 1.65 2 3.64 2.95 4.51 1.39 1.21 1.82 2.69 1.82 5.64 0 2.86 0.61 4.95 2.17 7.20 1.74 2.60 2.17 4.25 2.17 8.59 0 4.08 0.43 6.07 1.91 8.50 1.65 2.60 2 4.25 1.91 10.15 -0.09 6.07 -0.43 7.64 -2.60 11.45 -2.78 5.03 -4.77 5.90 -11.19 4.95 l-3.90 -0.61 -0.17 10.24 c-0.26 15.10 -0.17 15.88 2.60 22.04 4.08 8.94 4.77 13.88 4.25 28.37 -0.26 7.03 -0.95 18.74 -1.48 25.94 -0.95 11.37 -0.87 14.40 0.35 21.95 2.08 13.10 1.82 21.52 -1.21 36.27 -1.39 7.11 -3.04 14.23 -3.56 15.88 -0.52 1.65 -1.13 9.98 -1.39 18.48 l-0.43 15.44 -2.52 1.21 c-2.26 1.21 -8.33 1.56 -12.67 0.69z m-12.41 -221.68 l-0.09 -4.16 2.95 0 c3.64 0 3.90 -0.26 3.38 -3.47 -0.26 -2 -0.87 -2.60 -2.26 -2.60 -1.04 0 -2.69 -0.61 -3.73 -1.30 -1.82 -1.30 -2 -1.21 -2.69 1.48 -0.52 2.08 -0.43 3.04 0.43 3.56 0.61 0.43 1.13 2.17 1.13 4.08 0 2.95 -0.26 3.47 -1.74 3.47 -1.65 0 -1.74 0.35 -1.30 3.30 1.13 6.51 1.39 6.77 2.78 3.12 0.69 -1.82 1.21 -5.21 1.13 -7.46z m-24.81 1.04 c2.17 -1.04 4.69 -3.38 6.42 -5.81 2.60 -3.82 2.69 -4.16 1.13 -4.43 -2.26 -0.35 -9.20 4.86 -10.85 8.24 -2.26 4.43 -1.91 4.60 3.30 2z m44.94 -13.01 l-0.43 -6.94 3.47 0 c3.47 0 3.47 0.09 3.99 3.47 0.52 3.99 2.43 7.29 4.95 8.68 2.69 1.39 3.21 -1.13 0.95 -4.25 -1.13 -1.48 -2.08 -4.60 -2.43 -7.20 -0.26 -2.52 -1.13 -5.38 -2 -6.33 -0.78 -0.95 -1.91 -2.86 -2.52 -4.34 -0.61 -1.39 -1.91 -3.64 -2.95 -4.95 l-1.91 -2.34 -0.09 7.20 c0 7.20 -0.43 8.59 -5.64 16.83 -1.13 1.91 -1.04 2.17 1.65 4.60 1.56 1.39 2.95 2.52 3.12 2.52 0.09 0 0.09 -3.12 -0.17 -6.94z m-31.15 -12.93 c1.39 -1.39 2.34 -3.12 2.34 -4.60 0 -2.17 -0.09 -2.26 -2.95 -1.39 -2.78 0.87 -2.95 1.21 -3.30 5.03 -0.26 4.51 0 4.51 3.90 0.95z m14.49 -1.04 c0 -0.43 -0.78 -0.78 -1.74 -0.78 -1.65 0 -2.26 0.95 -1.21 2 0.69 0.69 2.95 -0.26 2.95 -1.21z m6.77 -10.32 c1.30 -0.09 1.30 -0.17 -0.17 -1.30 -1.30 -1.04 -1.91 -1.04 -2.95 -0.26 -0.78 0.69 -0.87 1.21 -0.26 1.39 0.52 0.17 1.04 0.95 1.04 1.74 0.09 1.30 0.17 1.30 0.52 0 0.17 -0.87 1.04 -1.56 1.82 -1.56z"/>
  <path d="M607.87 401.72 c-1.39 -0.43 -2.86 -1.30 -3.21 -1.91 -1.21 -1.82 -0.87 -8.59 0.52 -13.19 0.69 -2.34 1.30 -6.94 1.30 -10.24 0 -3.38 0.52 -7.03 1.21 -8.33 1.82 -3.56 1.13 -46.16 -0.95 -54.58 -0.35 -1.65 -1.04 -2 -3.64 -2 -1.74 -0.09 -4.86 -0.43 -7.03 -0.95 -2.17 -0.52 -6.07 -1.21 -8.68 -1.56 -2.69 -0.43 -5.64 -0.95 -6.59 -1.30 -1.39 -0.43 -2 0.35 -3.73 4.95 -1.13 2.95 -3.56 8.33 -5.29 11.89 -1.74 3.56 -4.34 9.80 -5.64 13.88 -1.56 4.77 -4.43 10.59 -8.24 16.49 -9.20 14.40 -9.28 14.49 -9.98 27.76 -0.35 7.11 -1.04 11.97 -1.65 12.32 -0.52 0.35 -2.34 0.69 -3.99 0.69 -2.08 0 -3.38 0.52 -4.16 1.74 -0.95 1.56 -2 1.74 -9.54 1.74 -5.47 0 -8.85 -0.35 -9.54 -1.04 -0.61 -0.61 -1.04 -2.69 -1.04 -4.69 0 -2.86 0.61 -4.43 2.95 -7.20 1.65 -2 3.21 -4.25 3.47 -5.12 0.26 -0.78 1.21 -4.34 2.17 -7.90 1.04 -3.56 2.78 -7.90 3.90 -9.54 1.21 -1.74 4.69 -10.76 7.81 -20.13 3.12 -9.37 7.11 -20.13 8.85 -23.86 2.60 -5.81 6.42 -15.53 6.42 -16.57 0 -0.09 -0.95 -0.26 -2.08 -0.26 -1.13 0 -3.30 -0.26 -4.77 -0.52 -2.43 -0.52 -2.69 -0.87 -2.69 -3.99 0 -2.52 1.04 -5.12 3.82 -9.63 6.16 -10.24 8.16 -14.66 10.41 -23.86 2.60 -10.24 2.60 -9.72 1.04 -9.72 -0.69 0 -1.48 -1.30 -1.82 -3.21 -0.26 -1.82 -1.91 -7.55 -3.56 -12.75 -4.16 -12.93 -4.43 -17.61 -2.08 -31.84 1.13 -6.33 1.91 -13.27 1.82 -15.27 -0.17 -3.30 0.09 -3.73 2.08 -4.25 1.82 -0.43 2.17 -1.04 2.17 -3.73 0.09 -4.51 1.56 -10.41 3.38 -13.01 1.39 -2 1.39 -2.60 0.43 -4.86 -1.21 -2.78 -1.56 -8.07 -0.69 -10.32 0.61 -1.56 6.42 -1.91 7.81 -0.52 0.69 0.69 1.30 0.52 2 -0.35 0.87 -1.04 0.78 -1.74 -0.35 -3.47 -0.87 -1.30 -1.30 -3.47 -1.13 -5.90 l0.26 -3.73 4.43 -0.09 c5.55 -0.09 6.07 -0.43 8.33 -5.29 3.56 -7.64 13.71 -11.97 22.82 -9.89 2.43 0.52 5.73 1.30 7.38 1.74 1.65 0.35 3.90 1.13 4.95 1.65 2.26 1.21 11.54 12.84 11.54 14.49 0 0.61 1.21 2.52 2.60 4.34 2 2.52 2.60 4.16 2.60 7.11 0 2.69 0.69 4.77 2.17 7.03 1.74 2.52 2.17 4.25 2.17 8.50 0 4.16 0.43 5.81 2 7.81 1.65 2.17 1.91 3.56 1.91 9.89 0 6.59 -0.26 7.81 -2.60 11.89 -2.60 4.60 -2.60 4.60 -6.85 4.60 -5.29 0 -4.95 0.43 6.16 8.76 7.38 5.55 8.07 6.33 8.07 9.02 0 1.82 -0.52 3.04 -1.39 3.38 -1.04 0.43 -1.21 1.21 -0.78 3.90 0.35 1.91 0.26 5.64 0 8.24 -0.61 4.77 -0.69 4.86 -3.38 4.86 -4.60 0 -8.76 -1.56 -12.49 -4.86 l-3.56 -3.04 2.78 5.90 c2.43 5.29 2.78 6.85 3.04 15.62 0.17 5.29 -0.35 18.05 -1.13 28.37 -1.39 17.61 -1.39 19.35 0 29.15 1.91 13.45 1.39 23.25 -2 37.31 -4.08 16.83 -4.69 21.08 -4.60 34.27 0.09 11.11 -0.09 12.49 -1.56 13.80 -2 1.82 -10.50 2.60 -14.32 1.39z m-12.93 -216.13 l0.52 -3.73 -1.91 1.74 c-1.48 1.39 -1.74 2.34 -1.30 4.60 0.78 3.64 2.08 2.34 2.69 -2.60z m-21.69 -5.29 c1.39 -1.13 6.33 -8.07 6.33 -8.85 0 -2.26 -10.41 4.08 -12.15 7.29 -1.74 3.21 -1.13 4.25 1.82 3.47 1.48 -0.43 3.30 -1.30 3.99 -1.91z m42.86 -12.41 l-0.26 -7.38 3.04 0 c3.30 0 4.08 1.04 4.08 5.29 0 1.65 1.04 3.64 3.21 6.07 3.04 3.38 3.21 3.47 3.90 1.65 0.52 -1.30 0.17 -2.52 -1.21 -4.34 -1.04 -1.48 -2 -4.25 -2.26 -7.11 -0.26 -3.21 -0.95 -5.29 -2.34 -6.77 -1.13 -1.21 -2.60 -3.56 -3.30 -5.21 -0.69 -1.65 -1.91 -3.82 -2.69 -4.77 -1.21 -1.65 -1.30 -1.30 -1.39 5.03 0 7.20 -1.21 11.19 -4.86 15.96 -2.52 3.30 -1.91 5.38 2.08 7.55 1.30 0.78 2.34 1.30 2.34 1.39 0 0 -0.17 -3.30 -0.35 -7.38z m-29.59 -17.01 c0 -2.26 -0.09 -2.34 -2.60 -1.39 -2.17 0.78 -2.60 1.48 -2.60 3.73 0 1.56 -0.26 3.56 -0.61 4.43 -0.35 0.95 0.61 0.52 2.60 -1.39 2.17 -2.08 3.21 -3.82 3.21 -5.38z m13.01 3.56 c0 -0.78 -3.21 -1.74 -3.82 -1.13 -0.17 0.26 -0.17 0.95 0 1.56 0.43 1.13 3.82 0.78 3.82 -0.43z m6.77 -10.41 c1.13 0 1.04 -0.17 -0.35 -1.21 -2.34 -1.74 -4.16 -0.17 -2.78 2.43 0.95 1.56 1.13 1.65 1.39 0.35 0.17 -0.87 0.95 -1.56 1.74 -1.56z"/>
  <path d="M845.09 401.55 l-3.04 -1.13 0.09 -5.64 c0 -3.12 0.52 -7.72 1.04 -10.32 0.61 -2.52 1.04 -7.03 1.04 -9.98 0 -3.56 0.52 -5.99 1.39 -7.38 1.30 -1.82 1.39 -3.38 0.43 -15.18 -0.52 -7.20 -0.69 -16.05 -0.43 -19.70 0.35 -3.99 0.17 -9.46 -0.52 -13.62 l-1.04 -6.94 -6.59 -0.61 c-3.56 -0.35 -7.20 -0.95 -7.90 -1.39 -1.13 -0.52 -8.85 -1.82 -12.58 -2.08 -0.35 0 -1.56 2.34 -2.69 5.21 -1.04 2.86 -3.21 7.72 -4.77 10.85 -1.56 3.12 -4.16 9.46 -5.73 14.23 -2.08 6.07 -4.51 10.93 -8.50 16.92 -7.98 11.89 -9.46 15.27 -9.63 21.34 -0.09 2.86 -0.43 8.24 -0.87 11.97 l-0.69 6.68 -3.64 0 c-2.95 0 -3.82 0.35 -4.60 2.08 -0.78 1.82 -1.74 2.17 -6.51 2.69 -3.04 0.35 -7.20 0.26 -9.37 -0.17 l-3.82 -0.78 -0.26 -4.43 c-0.26 -3.90 0.09 -4.95 2.60 -8.24 2 -2.60 3.56 -6.25 4.95 -11.37 1.13 -4.16 2.95 -8.94 4.08 -10.67 1.21 -1.74 4.86 -11.11 8.24 -20.91 3.30 -9.72 6.94 -19.61 8.24 -22.04 3.04 -6.16 7.20 -17.09 6.59 -17.61 -0.26 -0.26 -1.48 -0.52 -2.69 -0.52 -1.21 0 -3.12 -0.26 -4.16 -0.52 -3.12 -0.87 -2.69 -6.33 0.95 -12.41 5.47 -9.11 9.11 -17.18 10.93 -24.47 1.04 -3.99 2 -7.98 2.26 -8.76 0.35 -1.04 0 -1.56 -0.87 -1.56 -0.78 0 -1.56 -1.04 -1.91 -2.34 -0.26 -1.39 -1.39 -5.38 -2.52 -8.94 -5.38 -17.01 -5.81 -22.82 -3.04 -39.04 0.95 -5.47 1.74 -11.45 1.74 -13.27 0 -2.69 0.35 -3.38 2.17 -4.08 1.91 -0.69 2.17 -1.39 2.17 -4.95 0 -5.47 1.30 -10.06 3.47 -11.97 1.48 -1.39 1.56 -1.65 0.35 -3.47 -0.87 -1.39 -1.21 -3.64 -1.04 -7.11 l0.26 -5.03 4.77 -0.09 c6.33 -0.09 6.33 -0.09 4.77 -2.43 -0.95 -1.39 -1.30 -3.56 -1.13 -6.33 l0.26 -4.16 4.77 -0.09 4.77 -0.09 2.34 -4.25 c3.12 -5.64 6.59 -8.68 12.06 -10.24 5.73 -1.74 10.41 -1.74 14.40 -0.09 1.65 0.69 4.08 1.30 5.38 1.30 2.69 0 12.06 9.46 14.49 14.58 0.78 1.74 2.43 4.34 3.47 5.64 1.56 1.82 2.08 3.56 2.08 6.51 0.09 2.78 0.78 5.21 2.17 7.55 1.65 2.60 2.17 4.69 2.17 8.50 0 3.90 0.43 5.73 1.91 7.81 3.64 5.12 3.04 16.75 -1.21 23.51 -1.82 2.78 -2.34 3.04 -6.33 3.12 l-4.34 0.09 3.47 3.04 c1.91 1.65 6.07 4.77 9.37 7.03 5.47 3.82 5.81 4.25 5.81 7.38 0 1.82 -0.35 3.30 -0.87 3.30 -0.52 0 -0.87 3.47 -0.87 8.68 l0 8.68 -3.38 0 c-4.25 0 -8.42 -1.39 -11.97 -4.08 -1.56 -1.13 -2.86 -1.91 -2.86 -1.74 0 0.26 0.78 2.17 1.74 4.34 3.30 7.46 3.64 15.44 1.91 40 -1.39 19.44 -1.48 23.43 -0.52 29.93 2.08 13.80 1.56 25.60 -1.74 40.78 -4.25 19 -4.16 18.74 -4.34 33.14 -0.09 10.59 -0.35 13.10 -1.48 14.23 -1.82 1.91 -10.67 2.52 -14.66 1.13z m-12.58 -217.43 c-0.43 -1.21 -0.61 -1.21 -1.82 0 -1.04 1.04 -1.21 2.08 -0.69 4.25 l0.61 2.95 1.21 -2.95 c0.69 -1.56 0.95 -3.56 0.69 -4.25z m-24.03 -2.60 c3.47 -1.82 9.37 -9.98 7.55 -10.41 -1.39 -0.35 -7.81 3.82 -10.06 6.42 -0.78 0.95 -1.74 2.52 -2 3.64 -0.78 2.34 0.61 2.52 4.51 0.35z m45.64 -7.29 c-0.35 -0.61 -0.87 -3.56 -1.13 -6.59 l-0.52 -5.55 -2.43 3.64 c-2.78 4.34 -2.60 5.38 1.30 7.81 3.38 2 3.64 2.08 2.78 0.69z m12.84 -3.12 c-2.26 -3.12 -3.64 -7.20 -3.64 -10.93 0 -2.43 -0.43 -4.16 -1.21 -4.60 -0.61 -0.35 -2.17 -2.69 -3.47 -5.21 -1.21 -2.43 -2.60 -4.69 -3.04 -4.95 -0.43 -0.26 -0.95 2.43 -1.13 6.25 -0.26 3.64 -0.69 7.38 -1.04 8.24 -0.61 1.30 -0.26 1.48 2.78 1.48 3.30 0 3.47 0.09 3.99 3.47 0.61 4.08 5.47 10.15 6.94 8.68 0.61 -0.61 0.61 -1.30 -0.17 -2.43z m-42.69 -20.22 c0 -2.34 -0.09 -2.34 -2.60 -1.56 -1.56 0.61 -2.60 1.56 -2.60 2.52 0 0.87 -0.26 2.86 -0.52 4.43 l-0.61 2.95 3.21 -2.95 c2.08 -2.08 3.12 -3.82 3.12 -5.38z m12.15 3.47 c0 -0.43 -0.78 -0.78 -1.74 -0.78 -1.13 0 -1.56 0.43 -1.21 1.21 0.52 1.30 2.95 0.95 2.95 -0.43z m7.11 -10.32 c0.61 0 0.52 -0.43 -0.17 -1.30 -0.78 -0.95 -1.39 -1.04 -2.52 -0.26 -1.48 0.87 -1.48 1.13 -0.17 2.60 1.13 1.39 1.48 1.39 1.65 0.26 0.17 -0.69 0.69 -1.30 1.21 -1.30z"/>
 </g>
 <g fill="#ffffff">
  <path d="M0 416.47 l0 -416.47 472 0 472 0 0 416.47 0 416.47 -472 0 -472 0 0 -416.47z m156.70 384.28 c1.39 -1.56 1.65 -3.30 1.74 -10.67 0.09 -12.41 1.48 -24.12 4.69 -39.04 2.26 -10.85 2.69 -14.14 2.26 -20.39 -1.48 -23.34 -1.56 -38.87 -0.09 -52.23 1.65 -15.96 1.13 -22.04 -3.04 -32.80 -2.43 -6.25 -2.60 -7.29 -2.60 -19.17 0 -6.94 0.26 -13.97 0.52 -15.70 l0.52 -3.12 3.64 1.30 c4.69 1.74 5.90 1.21 8.94 -3.90 3.21 -5.47 3.38 -13.19 0.52 -17.27 -1.48 -2.08 -1.82 -3.73 -1.74 -7.81 0.17 -4.16 -0.17 -5.64 -1.74 -7.64 -1.48 -1.82 -2 -3.64 -2 -6.59 0 -3.21 -0.52 -4.77 -2.60 -7.38 -1.39 -1.82 -2.60 -3.82 -2.60 -4.43 0 -1.13 -4.43 -6.77 -9.54 -12.23 -1.65 -1.82 -3.73 -2.95 -5.81 -3.30 -1.82 -0.26 -4.69 -0.95 -6.51 -1.48 -7.03 -2.08 -15.36 2.17 -19.35 10.06 l-2.60 5.03 -4.51 -0.43 -4.60 -0.52 0 2.86 c0 1.74 0.69 3.47 1.74 4.43 2.17 2 2.17 2.86 -0.17 5.38 -2.08 2.17 -6.59 2.69 -8.33 0.95 -0.78 -0.78 -1.30 -0.78 -2.08 0 -0.78 0.78 -0.78 1.82 0 4.43 0.87 2.69 1.74 3.64 4.16 4.60 l3.21 1.30 -3.30 2 c-4.08 2.52 -6.42 7.55 -6.51 13.71 0 4.08 -0.26 4.69 -2.17 5.38 -2.60 0.95 -2.78 2.26 -0.52 3.38 1.56 0.87 1.56 1.13 -0.61 8.94 -3.12 11.54 -3.04 21.43 0.17 30.19 3.38 8.85 6.25 14.49 9.63 18.65 l2.86 3.56 -3.47 9.02 c-1.91 5.03 -4.60 14.23 -5.99 20.39 -3.64 15.96 -5.64 22.13 -10.32 32.54 -4.16 9.28 -6.42 15.44 -11.37 30.80 -1.48 4.77 -3.99 11.19 -5.64 14.32 -1.56 3.12 -3.73 8.76 -4.69 12.58 -1.30 4.69 -2.78 8.16 -4.86 10.76 -3.30 4.34 -3.38 4.43 -1.82 6.42 1.48 2.08 6.42 2.69 10.85 1.48 3.99 -1.04 5.38 -3.04 5.38 -7.81 0 -1.74 0.69 -3.04 2.26 -4.08 5.90 -3.99 6.59 -5.21 5.99 -9.80 -0.69 -5.21 1.21 -9.98 8.42 -20.39 6.25 -9.11 7.38 -11.37 10.41 -21.17 1.48 -4.60 3.38 -9.63 4.34 -11.11 0.87 -1.56 3.21 -6.33 5.03 -10.59 1.82 -4.25 6.77 -13.54 11.02 -20.65 4.25 -7.03 8.85 -14.92 10.24 -17.35 1.30 -2.52 2.95 -4.60 3.56 -4.60 0.61 0 1.48 2.34 2.08 6.33 0.61 3.38 2.08 11.54 3.47 17.96 3.38 16.40 4.43 27.59 4.77 52.23 0.26 16.75 0 22.30 -0.95 25.51 -0.69 2.26 -1.21 6.07 -1.21 8.50 0 2.52 -0.61 6.85 -1.30 9.63 -0.78 2.86 -1.21 5.99 -0.95 7.03 1.04 3.90 10.24 5.29 13.19 2z m229.75 0.87 c1.21 -0.61 2.43 -1.65 2.69 -2.43 0.35 -0.78 0.52 -7.20 0.52 -14.40 -0.09 -12.15 0.09 -13.80 2.95 -25.42 4.34 -17.79 4.95 -24.29 3.30 -37.48 -1.21 -9.54 -1.21 -13.01 -0.17 -29.07 0.69 -9.98 1.21 -22.47 1.13 -27.76 -0.09 -9.11 -0.26 -9.98 -3.82 -19.09 l-3.64 -9.54 0.52 -14.23 c0.35 -7.90 0.69 -14.40 0.78 -14.58 0.17 -0.09 2 0.43 4.08 1.13 5.38 1.91 7.11 1.13 9.80 -4.16 3.12 -6.16 3.21 -12.23 0.17 -16.57 -1.74 -2.69 -2 -3.82 -1.56 -7.55 0.43 -3.73 0.17 -4.77 -1.82 -7.81 -1.65 -2.60 -2.26 -4.51 -2.26 -7.81 0 -3.56 -0.43 -4.77 -2.08 -6.33 -1.13 -1.04 -2.69 -3.30 -3.38 -4.95 -2.95 -6.77 -10.59 -14.49 -15.10 -15.18 -1.82 -0.35 -4.16 -0.87 -5.29 -1.39 -2.86 -1.13 -5.47 -0.95 -9.80 0.52 -4.77 1.74 -8.16 4.86 -10.85 10.15 -2.26 4.51 -4.16 5.55 -7.72 4.16 -1.21 -0.43 -2.69 -0.69 -3.12 -0.35 -1.39 0.87 -0.87 4.69 0.95 6.16 2.17 1.91 2.17 4.16 0 6.33 -1.82 1.82 -7.29 2.43 -8.24 0.87 -0.95 -1.48 -2.17 0 -2.17 2.52 0 2.78 3.47 7.03 5.73 7.03 0.95 0 0.09 1.21 -2.52 3.56 -4.34 3.73 -5.81 7.20 -5.81 13.54 0 3.21 -0.26 3.73 -2.17 4.25 -2.60 0.61 -2.78 2.26 -0.43 3.90 1.65 1.21 1.65 1.30 -0.52 9.89 -3.64 14.58 -2.26 26.20 4.95 40.35 1.30 2.60 3.64 6.16 5.21 7.81 l2.78 2.95 -2 5.29 c-4.95 13.36 -8.76 26.03 -10.76 35.49 -1.65 7.55 -3.38 12.84 -6.85 20.39 -2.60 5.55 -6.59 15.96 -8.85 23.08 -2.26 7.20 -5.90 17.09 -8.24 22.13 -2.26 5.03 -4.60 11.11 -5.21 13.45 -1.39 5.21 -3.73 10.15 -5.55 11.63 -0.78 0.69 -1.39 2.34 -1.39 3.64 0 2.78 2.34 4.25 6.85 4.25 5.12 0 7.81 -1.65 8.85 -5.47 0.52 -2 1.39 -4.60 1.91 -5.81 0.95 -2 1.04 -1.91 1.48 2.08 0.43 4.34 1.30 5.38 3.30 4.16 1.39 -0.87 3.04 -15.01 2.34 -19.44 -0.69 -3.73 0.95 -7.20 8.24 -18.05 6.16 -9.02 7.38 -11.45 10.41 -20.39 3.82 -11.02 20.91 -45.29 23.34 -46.85 0.78 -0.43 14.58 1.65 15.27 2.34 0.78 0.78 2.86 10.93 4.34 21.34 1.91 13.19 2.43 54.58 0.78 60.82 -0.69 2.60 -1.21 6.77 -1.21 9.20 0 2.34 -0.61 6.42 -1.30 9.02 -0.87 3.30 -0.95 5.21 -0.35 6.33 1.65 3.04 7.38 4.16 11.54 2.34z m230.88 -0.26 c1.65 -0.69 3.04 -1.82 3.12 -2.43 0 -0.61 0.17 -7.20 0.35 -14.66 0.17 -11.80 0.69 -15.27 3.47 -27.76 2.69 -11.97 3.21 -15.79 3.21 -24.21 0 -5.47 -0.43 -12.06 -0.95 -14.66 -1.30 -6.33 -1.21 -13.62 0.43 -30.02 2.34 -24.55 1.91 -30.45 -3.21 -42.25 -2.52 -5.64 -2.52 -5.99 -2.52 -21.95 0 -15.10 0.09 -16.23 1.56 -15.62 7.55 3.12 10.32 2.43 13.10 -3.21 2.60 -5.55 2.52 -13.19 -0.35 -17.27 -1.82 -2.78 -2 -3.56 -1.21 -6.25 0.87 -3.12 0 -6.77 -2.26 -9.28 -0.61 -0.69 -1.30 -3.56 -1.48 -6.33 -0.26 -3.38 -0.95 -5.55 -2.17 -6.94 -0.95 -1.04 -2.60 -3.47 -3.56 -5.38 -2.60 -5.21 -11.37 -14.14 -14.49 -14.75 -1.39 -0.26 -3.99 -0.95 -5.81 -1.48 -7.11 -2.08 -15.70 1.91 -19.87 9.37 -3.30 5.73 -5.12 6.94 -8.76 5.64 -1.48 -0.52 -2.95 -0.69 -3.38 -0.43 -1.39 0.87 -0.78 3.64 1.30 6.16 1.48 1.82 1.82 2.95 1.30 4.34 -1.21 3.30 -6.94 5.03 -9.20 2.78 -1.21 -1.21 -2.86 -0.26 -2.86 1.48 0 2.60 2.78 6.59 5.38 7.64 l2.60 1.13 -3.04 1.82 c-4.51 2.60 -6.07 5.55 -6.59 12.67 -0.43 5.55 -0.69 6.16 -2.43 6.42 -2.60 0.35 -2.60 3.30 -0.17 3.90 1.30 0.35 1.74 0.95 1.30 1.91 -2.08 5.47 -4.16 19.70 -3.73 26.03 0.52 8.85 6.25 23.86 11.19 29.41 l3.21 3.73 -4.25 11.28 c-2.34 6.25 -5.21 16.14 -6.51 22.04 -2.69 12.58 -5.55 21.43 -9.98 30.28 -1.82 3.56 -5.29 12.75 -7.64 20.39 -2.43 7.64 -6.07 17.18 -7.98 21.17 -1.91 3.99 -4.25 9.89 -5.12 13.10 -1.82 6.51 -2.86 8.68 -5.90 12.67 -3.73 5.03 -1.91 7.72 5.29 7.64 5.55 -0.09 8.16 -1.39 8.85 -4.51 1.91 -8.50 3.82 -10.15 3.82 -3.12 0 3.21 0.26 3.82 1.65 3.82 0.95 0 2 -0.35 2.26 -0.87 0.26 -0.43 0.61 -5.81 0.78 -11.89 0.26 -12.49 1.04 -14.58 9.20 -26.72 5.38 -7.90 7.11 -11.63 9.46 -19.52 1.13 -3.47 3.47 -9.37 5.21 -13.01 1.82 -3.56 3.82 -7.90 4.43 -9.54 0.95 -2.52 8.50 -16.31 12.67 -23.08 1.13 -1.82 1.30 -1.82 6.59 -0.69 3.04 0.61 6.68 1.13 8.07 1.21 2.69 0 2.69 0 5.12 9.80 2.43 9.28 2.52 10.67 2.78 32.71 0.17 12.67 0.52 24.64 0.78 26.72 0.61 4.16 -1.65 23.34 -3.56 30.19 -1.91 7.03 -1.65 8.94 1.65 10.32 3.56 1.56 5.21 1.56 8.85 0.09z m228.97 -1.56 c1.13 -1.56 1.39 -4.51 1.39 -13.71 0 -7.11 0.52 -13.88 1.30 -17.35 2.86 -12.41 5.73 -27.42 6.25 -32.19 0.26 -3.04 -0.17 -9.72 -1.04 -16.75 -1.48 -10.93 -1.56 -12.93 -0.35 -27.16 0.69 -8.50 1.21 -20.30 1.21 -26.29 0 -10.59 -0.09 -11.02 -3.38 -19.09 l-3.38 -8.24 0.26 -15.62 c0.09 -8.59 0.35 -15.96 0.61 -16.31 0.26 -0.35 0.95 -0.26 1.65 0.35 1.91 1.56 7.46 2.52 9.20 1.56 2.17 -1.13 4.95 -6.94 5.55 -11.54 0.43 -3.04 0.09 -4.77 -1.48 -8.07 -1.48 -3.04 -2.08 -5.64 -2.08 -9.54 0 -4.25 -0.35 -5.73 -1.82 -7.38 -1.30 -1.39 -2 -3.64 -2.34 -7.11 -0.35 -3.73 -1.04 -5.73 -2.60 -7.38 -1.21 -1.21 -2.43 -3.21 -2.78 -4.34 -0.69 -2.34 -8.16 -11.80 -10.76 -13.62 -1.56 -1.13 -4.43 -1.91 -12.41 -3.56 -3.12 -0.61 -10.15 1.82 -13.10 4.51 -1.30 1.21 -3.30 4.16 -4.51 6.51 -2.34 4.69 -4.25 5.73 -7.72 4.34 -1.30 -0.43 -2.78 -0.87 -3.21 -0.87 -1.48 0 -0.78 4.95 0.95 6.51 2.26 2 2.17 3.73 -0.17 6.25 -1.91 2.08 -7.03 2.78 -8.07 1.13 -1.04 -1.74 -2.17 -0.78 -2.17 1.82 0 3.64 1.39 5.90 4.51 7.20 l2.60 1.13 -3.04 1.91 c-4.34 2.69 -5.90 5.55 -6.51 12.15 -0.52 4.86 -0.95 5.90 -2.52 6.59 -2.17 0.95 -2.69 3.90 -0.78 3.90 2.08 0 2.26 1.13 0.95 6.16 -2.60 9.89 -3.64 18.65 -2.95 23.86 1.04 7.64 7.46 23.17 11.45 27.50 3.82 4.16 4.08 2.17 -2.26 19.26 -2.08 5.73 -4.51 14.14 -5.21 18.65 -1.65 9.37 -5.03 19.78 -9.72 29.93 -1.82 3.82 -5.90 14.75 -9.11 24.29 -3.38 9.98 -7.20 19.52 -9.02 22.47 -1.74 2.86 -3.12 5.64 -3.12 6.25 0 3.73 -2.26 10.24 -4.43 13.01 -2.78 3.47 -3.30 6.85 -1.13 7.64 2.60 0.95 11.37 0.52 12.32 -0.61 0.52 -0.61 1.21 -2.78 1.56 -4.86 0.35 -2 1.30 -4.51 2.17 -5.55 1.56 -1.91 1.56 -1.91 1.65 2.69 0 4.16 0.17 4.51 2.08 4.51 2 0 2.08 -0.26 2.43 -8.42 0.26 -4.69 0.09 -9.37 -0.26 -10.41 -0.87 -2.26 2.17 -8.50 10.41 -21.43 2.78 -4.34 6.07 -10.85 7.38 -14.40 4.51 -12.23 5.03 -13.45 6.59 -16.05 0.87 -1.48 2.78 -5.73 4.25 -9.46 1.48 -3.82 3.99 -8.94 5.64 -11.37 1.65 -2.43 3.99 -6.59 5.29 -9.20 1.30 -2.60 2.43 -4.77 2.52 -4.86 0.09 -0.09 2.60 0.43 5.73 1.04 3.12 0.69 6.94 1.21 8.42 1.30 2.34 0 2.95 0.43 3.38 2.43 0.26 1.30 1.04 4.51 1.74 7.11 2 8.24 3.99 28.63 3.38 34.79 -0.35 3.12 -0.09 11.71 0.43 19.09 0.95 12.23 0.95 13.62 -0.43 16.83 -0.87 1.91 -1.82 7.03 -2.26 11.28 -0.35 4.34 -0.95 9.63 -1.30 11.89 -0.78 5.55 0.35 6.77 6.25 6.77 3.73 0 4.86 -0.35 5.90 -1.91z m-694.38 -402.15 c1.21 -1.04 1.56 -3.73 1.82 -16.14 0.35 -12.15 0.87 -16.66 2.69 -24.03 1.21 -5.03 2.86 -13.01 3.64 -17.79 1.30 -8.07 1.30 -9.54 -0.09 -21.60 -1.39 -11.80 -1.39 -14.66 -0.26 -31.67 0.69 -10.32 1.21 -22.65 1.13 -27.42 0 -7.98 -0.26 -9.28 -3.38 -16.92 -3.64 -8.94 -3.64 -9.37 -3.21 -30.28 0.17 -9.80 0.26 -10.67 1.74 -10.06 2.34 1.04 7.38 1.82 9.28 1.48 1.04 -0.17 2.69 -1.91 4.16 -4.43 3.21 -5.81 3.30 -13.01 0.17 -17.61 -1.91 -2.78 -2.08 -3.90 -1.65 -7.81 0.43 -4.08 0.17 -4.95 -1.74 -7.55 -1.74 -2.34 -2.26 -4.08 -2.26 -7.46 0 -3.47 -0.43 -4.86 -1.82 -6.16 -1.04 -0.87 -2.43 -2.95 -3.12 -4.51 -1.82 -4.25 -9.63 -13.88 -12.49 -15.36 -1.30 -0.69 -3.21 -1.30 -4.08 -1.30 -0.95 0 -3.21 -0.61 -4.95 -1.39 -2.78 -1.13 -3.99 -1.21 -7.29 -0.35 -6.42 1.56 -10.15 4.60 -13.19 10.50 l-2.69 5.38 -4.69 -0.52 c-4.69 -0.52 -4.69 -0.43 -4.69 1.91 0 1.30 0.78 3.12 1.74 3.99 2.17 2 2.17 3.90 0 6.33 -2 2.08 -6.77 2.60 -8.42 0.95 -1.65 -1.65 -3.12 0.09 -2.52 2.95 0.61 2.95 3.64 6.68 5.47 6.68 1.91 0 1.21 1.21 -1.82 3.21 -3.38 2.17 -5.73 6.68 -5.73 10.93 0 5.55 -0.95 8.33 -2.95 8.59 -1.30 0.17 -1.74 0.78 -1.56 2.17 0.17 1.04 -0.35 4.95 -1.04 8.68 -3.21 17.27 -3.30 20.04 -0.95 28.89 3.04 11.54 6.07 21.52 6.77 22.21 0.35 0.35 1.48 -0.09 2.52 -1.04 1.82 -1.65 1.82 -1.65 1.39 0.09 -0.26 0.95 -1.82 6.85 -3.56 13.01 -3.04 11.63 -4.77 15.62 -11.45 26.98 -2.17 3.64 -3.90 6.85 -3.90 7.29 0 0.35 1.48 0.95 3.30 1.21 1.74 0.35 4.25 0.78 5.55 1.04 l2.26 0.43 -2.34 7.11 c-1.39 3.90 -4.25 11.02 -6.42 15.79 -2.17 4.77 -6.07 15.44 -8.76 23.77 -2.78 8.50 -6.07 16.83 -7.46 19 -1.39 2.08 -2.95 5.99 -3.56 8.68 -1.30 6.42 -2.86 10.15 -5.55 13.36 -1.48 1.74 -2.17 3.47 -2 4.95 0.26 2.17 0.52 2.26 6.42 2.52 7.29 0.26 9.02 -0.78 9.02 -5.55 0 -3.30 1.30 -6.42 2.60 -6.42 0.52 0 0.87 1.74 0.87 3.82 0 2.34 0.43 3.99 1.13 4.25 2.69 1.04 3.21 -0.87 3.47 -12.06 0.35 -12.75 0.87 -14.14 10.93 -29.76 3.12 -4.86 6.16 -10.85 7.55 -15.18 1.30 -3.82 3.82 -9.98 5.55 -13.54 1.82 -3.56 4.16 -8.94 5.21 -11.97 1.13 -2.95 2.26 -5.55 2.52 -5.81 0.35 -0.17 3.30 0.26 6.59 0.95 6.25 1.30 8.24 1.13 8.24 -0.69 0 -0.61 0.78 -2.69 1.74 -4.60 l1.65 -3.47 -0.17 5.47 c-0.17 6.16 -0.61 5.81 8.24 6.77 l5.81 0.52 1.13 4.95 c0.61 2.69 1.04 9.11 0.95 14.40 -0.09 5.29 0.26 15.79 0.78 23.51 0.87 13.36 0.78 14.06 -0.95 17.96 -1.13 2.52 -1.82 5.73 -1.82 8.76 0 2.69 -0.43 7.55 -1.04 10.93 -0.78 4.43 -0.78 6.59 -0.17 7.64 1.82 2.78 8.76 3.04 11.71 0.43z m231.57 1.04 l2.60 -1.30 -0.09 -11.54 c0 -9.80 1.13 -22.21 2.26 -24.03 0.95 -1.56 5.64 -27.59 5.64 -31.50 0 -2.43 -0.61 -8.76 -1.48 -14.06 -1.30 -8.50 -1.30 -11.28 -0.35 -25.60 2.52 -36.96 2.43 -39.22 -2.69 -50.32 -2.86 -6.16 -3.04 -7.72 -2.60 -28.11 0.17 -11.11 0.17 -11.11 2.17 -10.50 3.56 1.04 7.98 1.82 9.28 1.56 0.69 -0.17 2.43 -2.26 3.73 -4.60 3.30 -5.90 3.47 -12.58 0.35 -17.27 -1.91 -2.95 -2.17 -3.99 -1.74 -8.16 0.43 -4.08 0.17 -5.12 -1.82 -8.07 -1.65 -2.43 -2.26 -4.43 -2.26 -7.38 0 -2.95 -0.43 -4.43 -1.82 -5.64 -0.95 -0.87 -2.34 -2.86 -2.95 -4.51 -1.82 -4.16 -8.94 -13.10 -12.06 -15.01 -1.48 -0.87 -3.47 -1.65 -4.43 -1.65 -0.87 0 -3.30 -0.61 -5.29 -1.39 -3.30 -1.30 -4.08 -1.30 -8.33 0 -5.47 1.56 -9.46 5.12 -12.58 11.19 -2 4.08 -2.26 4.25 -5.29 3.90 -1.74 -0.26 -3.82 -0.61 -4.51 -0.78 -2.26 -0.61 -2.17 4.25 0.09 6.68 3.99 4.25 -1.13 9.80 -7.03 7.55 -2.95 -1.13 -3.47 -0.78 -3.47 2.52 0 2.43 2.69 5.99 5.29 6.94 0.87 0.35 0.26 1.30 -2.17 3.38 -4.16 3.56 -5.73 7.11 -5.73 13.36 0 4.43 -0.17 4.86 -2.26 5.64 -1.48 0.61 -2.08 1.30 -1.74 2.17 0.26 0.69 -0.35 4.69 -1.30 8.85 -0.87 4.25 -1.91 11.54 -2.17 16.31 -0.52 8.24 -0.43 9.11 2.52 18.22 1.74 5.29 3.38 10.93 3.64 12.67 0.95 5.03 1.91 5.90 3.82 3.38 1.91 -2.43 3.30 -1.91 1.91 0.69 -0.52 0.95 -2.26 6.68 -3.90 12.75 -2.95 10.76 -7.64 21.26 -12.75 28.81 -1.39 2 -2.52 3.99 -2.52 4.43 0 0.52 2.43 1.30 5.29 1.82 2.95 0.52 5.55 1.04 5.73 1.21 0.52 0.61 -4.95 15.44 -7.81 21 -1.39 2.86 -5.29 13.19 -8.59 22.99 -3.30 9.80 -7.11 19.52 -8.50 21.69 -1.39 2.17 -3.21 6.94 -4.16 10.67 -1.74 6.51 -2.34 7.90 -6.42 13.01 -2.95 3.64 -1.39 5.29 5.03 5.64 8.07 0.43 8.85 0 9.54 -5.12 0.35 -2.34 1.30 -5.21 2.17 -6.25 1.56 -1.91 1.56 -1.91 1.65 2.69 0 4.16 0.17 4.51 2.08 4.51 2 0 2.08 -0.35 2.60 -8.50 0.35 -4.69 0.35 -9.54 0.09 -10.76 -0.69 -2.78 2 -8.24 9.98 -20.39 3.99 -5.99 6.68 -11.28 8.24 -16.05 1.30 -3.99 4.43 -11.71 7.03 -17.18 2.52 -5.55 4.86 -11.11 5.12 -12.41 0.35 -1.30 0.95 -2.52 1.30 -2.78 0.43 -0.26 3.21 0.17 6.25 0.87 3.04 0.69 5.99 1.30 6.59 1.30 0.61 0 2 -2.08 3.04 -4.51 l1.91 -4.60 0.43 5.21 0.43 5.21 6.85 0.87 6.94 0.87 1.13 6.07 c0.69 3.64 1.13 10.41 0.95 16.92 -0.17 5.99 0.09 16.14 0.52 22.65 0.61 10.06 0.52 12.15 -0.69 14.40 -0.78 1.56 -1.82 6.77 -2.26 11.71 -0.52 4.95 -1.13 10.50 -1.39 12.49 -0.52 3.64 0.26 4.95 3.56 5.81 3.21 0.78 4.86 0.61 7.38 -0.69z m236.35 -1.21 c1.39 -1.21 1.56 -2.26 1.13 -7.90 -0.78 -9.80 0.69 -22.65 4.16 -37.40 4.16 -17.87 4.43 -21.26 2.60 -35.14 -1.56 -11.28 -1.56 -12.67 -0.17 -31.93 2.34 -30.98 2.34 -31.15 -4.08 -46.33 -1.82 -4.16 -2.26 -6.51 -2.08 -10.32 l0.26 -4.86 2.86 4.43 c3.64 5.64 9.89 11.19 13.88 12.32 1.74 0.43 3.21 0.69 3.30 0.61 0 -0.09 0.35 -1.82 0.69 -3.73 l0.52 -3.64 -5.47 -3.47 c-6.59 -4.34 -14.06 -11.89 -15.27 -15.36 l-0.95 -2.60 1.56 2.17 c4.86 7.03 11.37 12.41 17.35 14.23 1.65 0.52 1.91 0.35 1.91 -1.56 0 -1.21 0.61 -2.52 1.39 -2.95 1.13 -0.61 -0.17 -2 -6.77 -6.94 -9.37 -7.03 -14.58 -12.41 -14.58 -15.01 0 -1.65 0.09 -1.65 1.91 -0.43 1.13 0.87 3.73 1.39 6.33 1.39 4.34 0 4.34 0 6.94 -4.60 3.47 -6.25 3.64 -12.75 0.26 -17.18 -2.08 -2.69 -2.34 -3.56 -1.82 -7.55 0.43 -3.90 0.17 -4.95 -1.82 -7.98 -1.56 -2.43 -2.26 -4.60 -2.26 -7.20 0 -2.95 -0.61 -4.60 -2.60 -7.11 -1.39 -1.82 -2.60 -3.73 -2.60 -4.34 0 -0.61 -2.17 -3.90 -4.86 -7.29 -4.69 -5.99 -8.24 -8.76 -11.37 -8.76 -0.87 0 -3.21 -0.61 -5.21 -1.30 -7.03 -2.43 -16.57 2 -20.04 9.37 -2.43 5.21 -3.73 5.99 -8.59 5.64 -5.03 -0.35 -5.81 1.21 -2.43 5.21 2.69 3.21 2.69 4.25 0.26 6.85 -1.91 2.08 -7.03 2.78 -8.07 1.13 -0.78 -1.30 -1.91 -1.04 -2.52 0.61 -0.95 2.52 1.21 7.11 3.99 8.59 l2.60 1.39 -2.95 2 c-3.90 2.60 -5.81 6.77 -6.51 13.80 -0.43 4.77 -0.78 5.64 -2.34 6.07 -1.48 0.35 -1.82 1.13 -1.82 4.16 0 2.08 -0.95 8.76 -2 14.92 -2.26 12.75 -2.17 14.23 2 27.42 1.65 5.03 3.21 10.59 3.47 12.41 0.69 3.64 2.17 4.08 4.16 1.30 1.91 -2.78 1.91 -0.43 -0.09 5.47 -0.95 2.60 -2.52 8.24 -3.56 12.67 -1.82 7.29 -4.95 13.88 -12.75 26.90 -0.87 1.48 -1.39 2.95 -1.13 3.30 0.35 0.26 2.52 0.69 4.95 1.04 2.34 0.26 4.77 0.69 5.21 1.04 1.04 0.61 -2.34 10.76 -7.20 21.26 -1.65 3.73 -5.64 14.49 -8.76 23.86 -3.12 9.37 -6.68 18.39 -7.81 20.13 -1.13 1.74 -3.04 6.51 -4.16 10.67 -2.08 7.38 -2.69 8.68 -6.77 13.80 -3.04 3.82 -1.48 5.29 5.90 5.64 5.29 0.26 6.16 0 7.46 -1.65 0.87 -0.95 1.56 -3.04 1.56 -4.43 0 -2.78 1.39 -5.90 2.60 -5.90 0.43 0 0.87 1.82 1.04 4.08 0.26 4.08 1.13 5.12 3.04 3.90 0.78 -0.52 1.21 -4.16 1.39 -11.97 0.35 -12.75 0.26 -12.75 10.15 -28.11 3.82 -5.90 6.68 -11.71 8.24 -16.49 1.30 -4.08 3.82 -10.32 5.64 -13.88 1.74 -3.56 4.08 -8.85 5.21 -11.71 1.13 -2.86 2.26 -5.47 2.52 -5.81 0.35 -0.35 2.86 -0.09 5.73 0.61 7.72 1.82 7.81 1.82 9.89 -3.04 1.04 -2.34 2.08 -4.34 2.43 -4.34 0.26 0 0.26 2.08 -0.09 4.69 -0.61 5.47 -0.61 5.47 8.24 6.25 3.30 0.35 5.99 0.69 5.99 0.78 0 0.09 0.43 2.34 0.95 4.86 0.52 2.60 1.04 14.49 1.30 26.38 0.52 27.94 0.52 26.98 -0.95 29.93 -0.78 1.56 -1.30 4.86 -1.30 8.50 0 3.21 -0.61 7.98 -1.39 10.50 -0.69 2.60 -1.13 5.55 -0.87 6.68 0.95 3.73 9.28 4.60 13.01 1.30z m237.39 0.26 c0.95 -1.04 1.21 -3.04 1.13 -8.85 -0.35 -11.19 1.04 -23.25 4.51 -38.35 3.47 -15.27 3.82 -22.47 1.74 -36.18 -1.21 -7.98 -1.13 -10.67 0.35 -31.58 1.91 -26.46 1.56 -30.54 -3.04 -40.95 -3.04 -6.94 -5.03 -17.96 -3.30 -17.96 0.43 0 1.65 1.48 2.69 3.30 4.34 7.55 9.63 12.06 15.96 13.62 2.17 0.52 2.26 0.43 2.26 -3.38 0.09 -3.64 -0.17 -4.08 -3.04 -5.90 -5.29 -3.30 -12.67 -9.80 -15.27 -13.54 -3.90 -5.64 -2.17 -5.12 2.34 0.61 3.90 5.12 9.20 8.94 13.88 10.06 2.17 0.61 2.34 0.43 2.34 -2.08 0 -1.48 0.43 -2.69 0.87 -2.69 2.08 0 0.43 -1.74 -5.29 -5.64 -8.59 -5.90 -15.53 -12.58 -15.53 -15.10 0 -1.56 0.35 -1.91 1.56 -1.30 0.78 0.35 3.47 0.78 5.81 0.95 4.16 0.26 4.43 0.17 6.33 -2.86 2.52 -3.99 3.99 -10.06 3.30 -13.45 -0.26 -1.48 -1.39 -3.90 -2.43 -5.38 -1.56 -2.17 -1.91 -3.73 -1.74 -7.38 0.26 -3.64 -0.17 -5.38 -1.91 -8.42 -1.56 -2.52 -2.26 -5.03 -2.26 -7.72 0 -2.78 -0.61 -4.51 -2.08 -6.33 -1.04 -1.30 -2.69 -3.90 -3.47 -5.64 -2.34 -4.95 -11.80 -14.58 -14.40 -14.58 -1.13 0 -3.73 -0.61 -5.73 -1.39 -3.38 -1.30 -4.08 -1.30 -8.50 0 -5.81 1.74 -9.37 4.69 -12.49 10.50 l-2.34 4.34 -4.77 0 c-4.25 0 -4.77 0.17 -5.03 1.91 -0.17 1.30 0.52 2.78 2 4.08 2.69 2.52 2.34 4.95 -0.95 7.11 -1.91 1.30 -4.08 1.30 -8.16 0.26 -0.95 -0.26 -1.39 0.43 -1.56 2.43 -0.26 2.86 2.08 6.33 5.12 7.38 0.87 0.35 0.17 1.39 -2.43 3.64 -4.08 3.56 -5.47 7.11 -5.47 13.80 0 3.47 -0.35 4.25 -1.91 4.86 -1.48 0.52 -1.91 1.48 -2.08 4.08 -0.09 1.82 -0.95 7.90 -2 13.36 -2.60 14.49 -2.43 16.83 2.95 33.84 1.13 3.56 2.26 7.55 2.52 8.94 0.61 2.69 2.60 3.12 3.90 0.87 1.56 -2.78 1.82 -0.61 0.52 3.30 -0.78 2.08 -2.34 7.64 -3.56 12.41 -2.17 8.42 -5.55 16.31 -11.28 25.77 -1.65 2.69 -2.95 5.29 -2.95 5.81 0 0.87 1.13 1.21 7.98 2.34 l3.21 0.52 -2.60 7.11 c-1.48 3.90 -4.16 10.50 -6.07 14.58 -1.82 4.08 -5.90 14.84 -8.94 23.95 -3.04 9.02 -6.59 17.87 -7.72 19.61 -1.21 1.82 -3.04 6.59 -4.16 10.76 -1.39 5.12 -2.95 8.76 -4.95 11.37 -3.64 4.86 -3.47 7.29 0.69 8.16 4.08 0.78 9.72 -0.09 11.11 -1.74 0.52 -0.78 1.04 -2.78 1.04 -4.51 0 -1.65 0.69 -4.08 1.56 -5.21 l1.48 -2.17 0.43 4.34 c0.35 3.64 0.69 4.34 2.43 4.60 1.74 0.26 1.91 -0.09 1.91 -3.12 0 -1.91 0.35 -5.38 0.87 -7.81 0.52 -3.04 0.52 -5.29 -0.09 -7.11 -0.87 -2.34 -0.61 -3.38 1.82 -8.07 1.56 -2.95 5.29 -9.11 8.42 -13.71 3.90 -5.90 6.33 -10.85 8.42 -16.92 1.56 -4.77 4.25 -11.28 5.90 -14.66 1.74 -3.30 3.99 -8.50 5.03 -11.45 1.04 -3.04 2.17 -5.47 2.52 -5.47 0.26 0.09 3.04 0.61 6.16 1.30 7.72 1.74 7.38 1.82 9.02 -2.60 2.26 -5.73 3.21 -5.64 2.95 0.17 l-0.26 5.03 7.03 0.78 7.11 0.78 1.04 6.51 c0.52 3.56 0.95 11.02 0.78 16.57 -0.17 5.55 0.09 15.79 0.43 22.73 0.69 11.19 0.61 13.01 -0.69 14.75 -0.87 1.39 -1.39 3.82 -1.39 7.38 0 2.95 -0.43 7.46 -1.04 9.98 -0.52 2.60 -0.95 6.07 -1.04 7.72 -0.09 2.69 0.26 3.12 2.95 4.08 3.47 1.21 7.64 0.69 9.54 -1.13z"/>
  <path d="M146.98 797.89 c-0.26 -0.78 -0.09 -3.21 0.35 -5.47 0.52 -2.34 1.13 -6.68 1.39 -9.80 0.35 -3.12 1.13 -7.55 1.82 -9.80 1.04 -3.38 1.13 -8.24 0.78 -25.16 -0.52 -24.73 -1.91 -37.40 -5.99 -57.44 -3.99 -19.35 -4.60 -26.03 -2.69 -29.85 1.65 -3.12 13.62 -15.70 15.01 -15.70 1.39 0 3.73 6.85 4.77 13.88 0.78 5.21 0.69 9.46 -0.43 21.34 -1.74 17.87 -1.82 33.58 -0.17 44.16 1.39 9.11 0.69 16.57 -2.69 30.80 -2.52 10.41 -4.08 23.60 -4.16 35.57 l-0.09 8.24 -3.73 0.26 c-2.69 0.17 -3.82 -0.09 -4.16 -1.04z"/>
  <path d="M62.99 795.72 c-0.26 -0.35 0.35 -1.48 1.30 -2.34 2.52 -2.26 3.04 -3.47 5.12 -11.11 0.95 -3.73 3.30 -9.72 5.12 -13.36 1.82 -3.64 5.21 -12.49 7.46 -19.70 2.26 -7.11 5.99 -17.09 8.24 -22.13 5.12 -11.19 8.76 -22.39 11.71 -36.01 1.30 -5.73 3.90 -14.49 5.73 -19.52 1.91 -5.03 3.73 -11.02 3.99 -13.27 0.26 -2.26 0.87 -4.34 1.21 -4.60 1.39 -0.78 4.95 1.74 12.49 9.11 l7.64 7.29 -2 3.99 c-1.04 2.17 -5.38 9.89 -9.72 17.18 -4.25 7.20 -9.11 16.40 -10.76 20.39 -1.74 3.99 -4.16 9.20 -5.55 11.54 -1.30 2.43 -3.64 8.24 -5.03 13.01 -2.08 6.68 -3.90 10.50 -7.98 16.40 -9.28 13.71 -11.97 20.65 -10.06 26.20 0.61 1.56 0.09 2.26 -2.86 3.90 -3.64 2 -6.16 5.99 -6.16 9.80 0 1.30 -0.69 2.60 -1.65 3.12 -2.08 1.04 -7.64 1.13 -8.24 0.09z"/>
  <path d="M106.55 654.21 c-3.12 -4.08 -9.28 -19.52 -10.24 -25.77 -0.69 -3.90 -0.52 -6.68 0.87 -13.19 2.52 -12.41 3.30 -14.66 5.21 -15.27 0.95 -0.26 2.52 -1.56 3.47 -2.78 l1.74 -2.26 0 5.38 c0 3.56 -0.78 7.46 -2.34 11.97 -2 5.64 -2.43 8.16 -2.34 15.01 0 8.85 1.91 16.92 4.86 21 1.13 1.65 1.56 3.47 1.39 5.64 l-0.26 3.30 -2.34 -3.04z"/>
  <path d="M116.53 651.08 c-3.21 -0.69 -3.56 -2.08 -2.69 -9.28 0.69 -5.55 0.52 -8.42 -0.95 -16.05 -0.95 -5.12 -2 -12.15 -2.34 -15.70 l-0.61 -6.42 2.08 0.61 c5.47 1.56 6.77 1.48 10.85 -0.26 l4.25 -1.91 6.94 3.04 c3.82 1.65 7.98 3.21 9.28 3.47 2.34 0.52 2.34 0.61 1.82 5.99 -0.52 6.07 0.17 8.07 4.95 14.06 1.56 1.91 3.56 4.95 4.51 6.77 l1.65 3.30 -3.30 3.04 c-1.82 1.65 -6.16 4.51 -9.72 6.25 -6.16 3.04 -6.94 3.21 -15.62 3.38 -5.03 0.09 -10.06 -0.09 -11.11 -0.26z m16.92 -14.84 c-0.35 -4.16 -2.43 -4.95 -2.43 -0.87 0 1.56 0.26 3.21 0.61 3.47 1.39 1.39 2.08 0.35 1.82 -2.60z"/>
  <path d="M108.02 642.93 c-2 -4.86 -2.86 -21.60 -1.30 -25.60 1.04 -2.43 1.13 -2.08 2.69 6.51 1.65 9.28 1.91 15.70 0.87 20.39 l-0.52 2.60 -1.74 -3.90z"/>
  <path d="M152.36 626.44 l-4.16 -5.64 0.35 -5.64 c0.26 -3.47 1.21 -7.03 2.43 -9.37 2.43 -4.69 2 -9.28 -1.74 -16.66 -1.48 -2.86 -2.34 -5.21 -1.91 -5.21 1.65 0 8.94 5.38 9.80 7.11 0.52 1.30 0.61 8.50 0.17 21.52 l-0.69 19.52 -4.25 -5.64z"/>
  <path d="M162.42 605.62 c-1.56 -1.48 -1.82 -2.43 -1.39 -5.03 0.61 -4.16 -0.95 -10.41 -3.38 -13.10 -1.04 -1.04 -4.16 -3.12 -6.85 -4.51 -4.86 -2.43 -7.64 -5.21 -7.64 -7.55 0 -0.69 1.04 -2.43 2.34 -3.99 3.73 -4.51 5.47 -9.11 5.47 -15.27 0 -6.59 -1.13 -8.76 -6.07 -11.28 -3.30 -1.65 -3.38 -1.65 -7.20 0 -4.86 2.17 -5.21 2.60 -7.98 10.41 -2.69 7.55 -6.94 12.58 -11.97 14.06 -2.78 0.87 -3.47 0.78 -4.69 -0.43 -1.39 -1.30 -1.30 -1.56 0.43 -3.47 2.60 -2.78 2.60 -7.72 0 -9.54 -2 -1.39 -1.91 -1.39 1.56 -1.39 4.43 -0.09 6.68 -1.82 9.72 -7.38 1.74 -3.21 3.38 -4.86 6.25 -6.33 4.08 -2 9.89 -2.60 10.85 -1.13 0.26 0.52 1.82 0.87 3.30 0.87 3.04 0 6.33 1.82 8.42 4.69 0.69 1.04 2.52 3.21 4.08 4.95 1.56 1.74 2.86 3.82 2.86 4.51 0 0.78 1.13 2.69 2.52 4.25 1.91 2.26 2.52 3.99 2.86 7.72 0.26 3.04 1.04 5.81 2.26 7.46 1.56 2.17 1.74 3.38 1.30 6.94 -0.43 3.82 -0.17 4.86 1.82 7.72 2.34 3.38 3.12 9.28 1.39 10.32 -0.43 0.26 -0.87 0.09 -0.87 -0.43 0 -0.52 -0.95 -2.34 -2.08 -4.16 -1.13 -1.74 -2.52 -4.60 -3.04 -6.42 -0.61 -1.91 -2.17 -3.90 -3.99 -5.12 -3.73 -2.60 -5.64 -5.90 -5.64 -9.80 0 -1.74 -0.43 -3.12 -0.95 -3.12 -0.69 0 -0.87 1.48 -0.61 4.43 0.43 4.08 0.95 4.95 4.95 8.76 4.86 4.77 5.21 5.99 3.38 13.62 -0.87 3.73 -0.78 4.60 0.52 6.59 0.78 1.21 2.34 2.60 3.38 3.04 1.74 0.69 1.65 0.78 -0.78 0.78 -1.48 0.09 -3.38 -0.69 -4.51 -1.65z"/>
  <path d="M166.68 603.54 c-1.48 -1.74 -0.87 -7.90 0.69 -7.90 1.21 0 3.82 7.11 3.04 8.42 -0.69 1.13 -2.60 0.78 -3.73 -0.52z"/>
  <path d="M129.97 600.76 c-1.30 -0.69 -2.60 -2.17 -2.78 -3.21 -1.56 -7.81 -2.34 -13.01 -1.91 -13.45 0.26 -0.26 1.48 0 2.69 0.52 1.39 0.61 2.17 0.69 2.17 0.17 0 -0.52 -1.04 -1.39 -2.26 -1.91 -1.65 -0.78 -2.08 -1.48 -1.74 -2.78 0.17 -1.04 1.04 -4.25 1.91 -7.29 l1.48 -5.47 2.34 2.26 c1.30 1.30 3.90 2.86 5.73 3.47 3.12 1.04 3.38 1.48 3.82 4.95 0.26 2 0.78 4.25 1.13 4.86 0.52 0.69 0 1.04 -1.74 1.04 -2.52 0 -5.29 1.30 -4.51 2.08 0.17 0.26 1.91 0.09 3.64 -0.35 3.82 -0.87 4.86 0.35 3.12 3.56 -1.48 2.78 -9.46 12.93 -10.15 12.93 -0.35 -0.09 -1.65 -0.61 -2.95 -1.39z"/>
  <path d="M100.65 596.16 c0.43 -0.95 0.87 -3.82 0.87 -6.33 0 -5.12 2.08 -9.46 5.38 -11.11 1.13 -0.61 2.78 -1.91 3.73 -2.95 0.95 -1.13 3.99 -2.86 6.68 -3.90 2.78 -1.13 5.99 -3.04 7.20 -4.25 l2.26 -2.26 -0.26 3.38 c-0.17 2.26 -0.69 3.56 -1.56 3.64 -0.69 0.09 -3.12 0.43 -5.47 0.69 -2.43 0.35 -3.90 0.87 -3.56 1.48 0.35 0.43 1.82 0.61 3.47 0.26 2.95 -0.52 2.95 -0.52 2 1.91 -2.78 7.46 -8.07 13.36 -13.10 14.58 -1.39 0.35 -3.04 1.82 -4.08 3.56 -1.91 3.21 -5.29 4.43 -3.56 1.30z"/>
  <path d="M104.99 570.74 l-2.17 -2 3.47 -0.43 c3.47 -0.43 4.51 0.35 4.69 3.30 0.09 1.74 -3.73 1.21 -5.99 -0.87z"/>
  <path d="M133.96 567.96 c-4.16 -4.16 -4.77 -6.59 -2.52 -10.93 1.04 -2 1.91 -2.60 3.99 -2.60 1.56 0 2.43 -0.35 2.08 -0.87 -0.26 -0.43 -1.48 -0.87 -2.69 -0.87 -1.13 0 -2.08 -0.35 -2.08 -0.69 0 -1.13 3.56 -4.16 6.68 -5.73 2.86 -1.39 2.86 -1.39 5.81 1.39 1.65 1.56 3.21 3.73 3.56 4.86 0.52 1.65 0.26 1.91 -2.08 1.91 -2.08 0 -2.69 0.35 -2.69 1.74 0 1.30 0.61 1.74 2.17 1.74 2.69 0 2.86 -1.48 0.26 -2 -1.74 -0.43 -1.74 -0.43 0.17 -0.35 1.30 0.09 2.26 0.78 2.43 1.82 0.43 2.26 -2.17 8.76 -4.77 11.80 -3.12 3.73 -5.73 3.38 -10.32 -1.21z m8.42 0.35 c2.95 -1.65 2 -3.47 -1.82 -3.47 -3.56 0 -4.51 1.21 -2.43 3.30 1.30 1.30 2.08 1.30 4.25 0.17z m-3.99 -11.28 c0.35 -0.52 -0.43 -0.87 -1.74 -0.87 -1.30 0 -2.08 0.35 -1.74 0.87 0.26 0.52 1.04 0.87 1.74 0.87 0.69 0 1.48 -0.35 1.74 -0.87z"/>
  <path d="M379.77 795.89 c-1.39 -0.35 -1.48 -1.04 -1.04 -5.29 0.87 -7.64 1.04 -7.98 4.25 -7.98 l2.86 0 0.61 6.07 c0.35 3.30 0.35 6.42 0.09 6.94 -0.52 0.87 -3.90 1.04 -6.77 0.26z"/>
  <path d="M296.74 791.90 c0 -0.61 0.35 -1.48 0.78 -1.91 0.43 -0.52 1.82 -4.25 3.04 -8.42 1.13 -4.25 2.34 -7.98 2.69 -8.50 0.26 -0.52 1.56 -0.35 3.30 0.43 1.56 0.61 3.47 1.39 4.34 1.65 0.95 0.35 1.48 1.39 1.48 3.12 0 2 -0.69 3.04 -3.04 4.51 -2.86 1.91 -3.47 2.78 -5.55 7.90 -0.78 1.91 -1.48 2.34 -3.99 2.34 -1.91 0 -3.04 -0.43 -3.04 -1.13z"/>
  <path d="M380.38 778.71 c-0.35 -0.78 0 -2.60 0.61 -4.16 0.95 -2.17 1.13 -7.90 0.95 -26.20 -0.26 -24.47 -0.95 -33.58 -3.73 -47.20 -0.95 -4.51 -1.56 -8.33 -1.39 -8.42 0.17 -0.17 3.64 -0.09 7.90 0.26 l7.55 0.52 -0.52 8.33 c-0.43 5.81 -0.17 11.71 0.87 19.70 1.65 13.19 1.13 18.91 -3.12 36.35 -1.48 6.25 -2.52 12.67 -2.52 16.23 l0 5.90 -3.04 0 c-2 0 -3.30 -0.52 -3.56 -1.30z"/>
  <path d="M307.41 770.90 l-1.91 -1.30 2.60 -6.25 c1.39 -3.47 4.34 -11.80 6.42 -18.48 2.17 -6.77 5.55 -15.70 7.64 -20.04 4.69 -9.63 6.07 -13.71 8.76 -26.72 1.21 -5.64 2.43 -10.50 2.60 -10.76 0.87 -0.78 18.74 2.69 18.74 3.64 0 0.52 -1.56 3.73 -3.56 7.03 -5.73 9.89 -15.10 30.02 -18.13 39.04 -2 5.99 -4.34 10.76 -8.42 16.75 -3.12 4.60 -6.77 10.67 -8.16 13.45 -2.69 5.21 -3.56 5.73 -6.59 3.64z"/>
  <path d="M337.17 653.95 c-2.78 -3.56 -6.85 -13.27 -8.76 -20.56 -1.82 -6.77 -1.39 -13.80 1.39 -25.08 1.74 -7.03 2.17 -7.90 3.90 -7.90 5.03 0 5.99 3.12 3.30 10.50 -3.38 9.63 -3.82 12.93 -2.86 21 1.04 8.59 2.43 13.36 5.12 17.09 1.74 2.52 2.43 7.81 0.95 7.81 -0.52 0 -1.82 -1.30 -3.04 -2.86z"/>
  <path d="M346.28 650.65 c-2.52 -0.78 -2.86 -1.13 -2.43 -3.21 1.48 -7.29 1.56 -13.27 0.26 -20.56 -1.65 -9.54 -1.74 -10.93 -0.26 -10.32 0.61 0.17 8.16 0.52 16.66 0.61 l15.62 0.17 0.43 3.04 c0.35 1.74 2.17 5.12 4.25 7.81 2 2.52 4.25 5.81 4.95 7.20 1.30 2.52 1.30 2.60 -2 5.99 -1.82 1.82 -6.16 4.86 -9.72 6.59 -6.07 3.04 -7.03 3.21 -15.62 3.38 -5.03 0.09 -10.50 -0.17 -12.15 -0.69z m17.35 -17.53 c-0.69 -0.69 -0.95 -0.09 -0.95 2.08 0 3.99 1.21 5.21 1.56 1.65 0.17 -1.56 -0.09 -3.21 -0.61 -3.73z"/>
  <path d="M339.34 643.19 c-1.30 -3.30 -2.69 -11.89 -2.69 -17.18 0 -3.99 1.48 -11.37 2.17 -10.67 0.17 0.09 0.87 3.90 1.65 8.33 2.26 13.10 1.56 25.94 -1.13 19.52z"/>
  <path d="M385.67 629.65 c-0.43 -0.69 -2.17 -2.86 -3.64 -4.95 -2.43 -3.21 -2.86 -4.43 -2.86 -8.59 0 -3.30 0.52 -5.90 1.74 -7.90 0.95 -1.65 2.52 -4.69 3.47 -6.68 1.21 -2.69 2.17 -3.73 3.47 -3.73 1.39 0 1.74 0.43 1.39 1.56 -0.95 3.56 -1.65 9.98 -2.17 20.39 -0.35 7.72 -0.78 10.67 -1.39 9.89z"/>
  <path d="M359.81 607.18 c-0.52 -4.16 -0.43 -4.60 1.65 -3.82 1.13 0.43 1.30 1.21 0.87 3.30 -0.87 4.43 -2 4.60 -2.52 0.52z"/>
  <path d="M394.35 606.31 c-2.69 -1.48 -3.04 -2.43 -3.04 -8.33 0 -7.81 -2.69 -12.23 -8.59 -14.14 -6.59 -2.08 -10.32 -8.94 -6.51 -12.15 0.69 -0.61 2.34 -3.12 3.64 -5.47 4.25 -8.24 2.69 -19.61 -2.95 -21 -1.21 -0.35 -2.43 -1.13 -2.78 -1.74 -0.61 -1.04 -1.39 -0.87 -4.69 0.95 -5.21 2.86 -5.81 3.73 -8.94 11.71 -2.08 5.29 -3.47 7.46 -6.42 9.89 -4.51 3.82 -7.55 4.69 -9.37 2.95 -1.13 -1.21 -1.04 -1.74 0.52 -4.69 2.26 -4.25 2.26 -6.07 0.09 -7.46 -2.52 -1.65 -2.17 -2.43 1.21 -2.43 4.60 0 5.55 -0.69 8.50 -6.33 2.43 -4.51 3.47 -5.47 7.46 -7.38 3.12 -1.39 5.47 -1.91 7.38 -1.65 11.28 2 11.19 1.91 15.53 6.77 2.26 2.60 4.95 6.42 5.99 8.59 1.04 2.17 2.60 4.69 3.38 5.64 0.87 0.95 1.74 3.73 1.91 6.33 0.26 2.95 1.21 5.64 2.43 7.29 1.65 2.26 1.91 3.30 1.39 7.11 -0.43 3.99 -0.17 4.95 1.65 7.46 1.74 2.34 2.17 3.99 2.17 7.72 l-0.09 4.86 -1.82 -3.47 c-0.95 -1.91 -2.26 -4.08 -2.86 -4.77 -0.61 -0.69 -1.30 -2.43 -1.65 -3.82 -0.35 -1.39 -2.60 -4.34 -5.03 -6.59 -3.73 -3.47 -4.43 -4.60 -4.77 -8.07 -0.52 -4.51 -2 -5.55 -2 -1.48 0 4.16 2.08 8.24 5.90 11.28 4.25 3.38 4.69 4.77 3.47 11.19 -1.21 6.25 -0.43 9.20 2.60 10.85 l2.34 1.30 -2.17 0 c-1.21 0 -2.95 -0.43 -3.90 -0.95z"/>
  <path d="M398.34 603.36 c-1.74 -1.21 -1.91 -2 -1.56 -4.86 0.78 -5.81 2.17 -5.38 4.25 1.30 1.21 4.08 0.17 5.55 -2.69 3.56z"/>
  <path d="M360.94 601.02 c-1.82 -0.95 -2.34 -2.17 -3.64 -9.28 -0.87 -4.43 -1.30 -8.33 -1.13 -8.50 0.17 -0.26 1.39 0.26 2.60 1.04 1.91 1.21 2.17 1.30 2.17 0.09 0 -0.69 -0.35 -1.30 -0.69 -1.30 -0.43 0 -1.39 -0.52 -2.17 -1.04 -1.39 -1.04 -1.39 -1.39 0.26 -5.73 0.95 -2.52 1.74 -5.47 1.74 -6.68 0 -2.60 1.30 -2.86 2.60 -0.43 1.04 2 5.21 4.34 7.64 4.34 1.21 0 1.82 1.04 2.52 5.03 0.52 2.69 1.21 5.90 1.56 7.11 0.43 1.74 -0.43 3.64 -4.16 9.11 -2.60 3.82 -5.29 7.03 -5.90 7.11 -0.69 0.17 -2.17 -0.26 -3.38 -0.87z m12.06 -15.88 c0.17 -0.17 -1.04 -0.35 -2.78 -0.35 -1.74 0 -3.21 0.35 -3.21 0.87 0 0.69 5.03 0.26 5.99 -0.52z"/>
  <path d="M331.44 595.55 c0.52 -1.21 0.87 -3.73 0.87 -5.73 0 -4.77 2.17 -9.02 5.99 -11.28 4.95 -3.04 6.07 -5.90 2.26 -5.90 -1.82 0 -6.33 -3.12 -5.47 -3.82 0.09 -0.17 1.65 -0.52 3.38 -0.78 3.04 -0.43 3.21 -0.35 3.73 2.17 0.35 1.91 0.87 2.43 2 2.17 0.87 -0.26 3.04 -0.69 4.86 -1.04 2.08 -0.35 4.34 -1.65 6.25 -3.56 2.95 -2.95 3.04 -2.95 3.04 -0.87 0 1.21 -0.35 3.04 -0.78 4.16 -0.69 1.82 -1.21 2 -6.94 2 -4.16 -0.09 -5.81 0.26 -5.29 0.78 0.52 0.52 2.52 0.87 4.43 0.87 3.12 -0.09 3.38 0.09 2.86 1.74 -1.91 6.59 -9.54 15.27 -13.45 15.27 -0.78 0 -2.52 1.39 -3.73 3.04 -2.86 3.73 -5.29 4.16 -3.99 0.78z"/>
  <path d="M365.37 568.66 c-4.08 -3.64 -5.03 -6.85 -3.21 -11.02 1.04 -2.69 1.74 -3.12 4.60 -3.47 l3.30 -0.26 -2.78 -0.69 c-1.56 -0.43 -2.86 -1.04 -2.86 -1.30 0 -2.08 5.55 -6.16 8.33 -6.16 2.43 0 7.29 4.51 7.29 6.77 0 1.30 -0.69 1.91 -2.34 2.17 l-2.43 0.35 2.43 0.17 c1.30 0 2.34 0.52 2.34 1.04 0 0.61 -0.95 0.69 -2.60 0.35 -1.65 -0.35 -2.60 -0.26 -2.60 0.35 0 0.52 1.21 0.95 2.60 0.95 3.21 0 3.38 1.39 0.52 7.55 -3.38 7.20 -7.20 8.16 -12.58 3.21z m9.28 -2.26 c0.26 -1.30 -0.35 -1.56 -3.21 -1.56 -3.38 0 -4.60 1.21 -2.95 2.95 1.21 1.21 5.90 0.09 6.16 -1.39z m-0.69 -3.30 c0 -0.43 -0.61 -0.87 -1.30 -0.87 -0.69 0 -1.30 0.43 -1.30 0.87 0 0.52 0.61 0.87 1.30 0.87 0.69 0 1.30 -0.35 1.30 -0.87z m-4.77 -6.07 c0.35 -0.52 -0.43 -0.87 -1.74 -0.87 -1.30 0 -2.08 0.35 -1.74 0.87 0.26 0.52 1.04 0.87 1.74 0.87 0.69 0 1.48 -0.35 1.74 -0.87z"/>
  <path d="M610.22 795.55 c-0.61 -0.61 -0.69 -1.82 -0.17 -3.64 0.43 -1.56 0.78 -4.25 0.78 -5.99 0 -3.12 0.09 -3.30 2.95 -3.30 l2.86 0 0.61 6.07 c0.35 3.30 0.35 6.42 0.09 6.94 -0.69 1.13 -5.90 1.13 -7.11 -0.09z"/>
  <path d="M528.40 791.99 c0 -0.61 0.61 -2.60 1.21 -4.60 0.69 -1.91 1.91 -5.64 2.60 -8.24 2.08 -7.38 2.26 -7.46 6.85 -5.29 5.55 2.69 5.90 5.38 1.21 9.72 -2 1.82 -3.99 4.60 -4.60 6.16 -0.78 2.43 -1.39 2.86 -4.08 3.12 -2.17 0.17 -3.21 -0.09 -3.21 -0.87z"/>
  <path d="M612.13 779.15 c-0.35 -0.52 -0.09 -2.95 0.43 -5.38 0.78 -3.12 0.95 -8.33 0.52 -17.79 l-0.61 -13.27 5.64 0 c3.12 0 5.73 0.26 5.73 0.52 0 0.35 -1.21 5.81 -2.60 12.32 -1.48 6.42 -2.86 14.58 -3.21 18.13 -0.52 6.25 -0.52 6.33 -2.95 6.33 -1.30 0 -2.69 -0.43 -2.95 -0.87z"/>
  <path d="M538.81 770.64 l-2 -1.65 3.56 -9.02 c1.91 -4.95 4.34 -11.89 5.38 -15.36 1.65 -5.81 2 -6.33 3.73 -5.90 1.04 0.35 3.99 0.78 6.51 1.13 2.60 0.26 4.51 0.95 4.51 1.56 0 0.52 -2.78 5.29 -6.16 10.50 -3.38 5.21 -7.38 11.89 -8.76 14.92 -1.39 2.95 -3.12 5.38 -3.73 5.38 -0.61 0 -2 -0.69 -3.04 -1.56z"/>
  <path d="M568.40 654.55 c-2.26 -2.86 -2.26 -3.12 -0.09 -5.12 2.17 -1.91 3.38 -1.04 3.56 2.60 0.35 5.55 -0.61 6.16 -3.47 2.52z"/>
  <path d="M582.45 651.60 c-7.81 -1.13 -7.55 -0.78 -6.94 -9.20 0.35 -5.03 0.09 -9.72 -0.69 -14.14 -0.69 -3.64 -1.30 -7.72 -1.30 -9.02 l0 -2.43 17.09 0.35 17.01 0.35 1.04 3.56 c0.61 2 2.26 5.03 3.64 6.85 6.59 8.59 6.77 10.15 2 14.40 -8.16 7.46 -20.39 11.02 -31.84 9.28z m13.27 -15.96 c-0.26 -1.21 -0.95 -2.26 -1.39 -2.26 -0.95 0 -1.21 4.60 -0.26 5.47 1.13 1.13 2.26 -1.04 1.65 -3.21z"/>
  <path d="M570.13 644.49 c-1.04 -2.86 -1.74 -6.33 -2.60 -13.54 -0.61 -4.95 -0.52 -7.55 0.52 -11.71 1.82 -7.29 2.86 -8.07 2.86 -2.26 0 2.52 0.52 7.64 1.21 11.19 1.30 6.59 0.95 18.22 -0.52 18.22 -0.43 0 -1.04 -0.87 -1.48 -1.91z"/>
  <path d="M591.47 609.96 c-1.30 -5.81 -1.30 -7.03 0.17 -6.77 1.65 0.35 2.26 3.82 1.13 6.77 l-0.87 2.17 -0.43 -2.17z"/>
  <path d="M624.88 605.96 c-1.65 -1.13 -1.91 -2.17 -1.91 -6.68 0 -3.47 -0.61 -6.68 -1.74 -9.11 -1.48 -3.21 -2.43 -4.08 -7.29 -6.25 -5.64 -2.60 -8.33 -5.12 -8.33 -7.98 0 -0.87 1.39 -3.30 3.04 -5.47 3.56 -4.69 4.77 -8.68 4.77 -15.36 0 -3.99 -0.43 -5.38 -2.26 -7.55 -1.21 -1.48 -2.78 -2.69 -3.38 -2.69 -0.69 0 -1.74 -0.52 -2.43 -1.21 -1.04 -1.04 -1.82 -0.87 -5.38 1.04 -4.43 2.43 -4.86 3.04 -8.68 12.32 -3.30 7.90 -8.50 13.01 -13.27 13.01 -3.12 0 -3.90 -2.08 -1.91 -5.38 2.34 -3.82 2.26 -7.11 -0.17 -8.76 -2 -1.39 -1.91 -1.39 1.30 -1.39 4.69 -0.09 6.33 -1.30 8.85 -6.07 3.30 -6.68 9.46 -10.32 15.44 -9.37 5.21 0.87 9.80 2 11.11 2.86 1.91 1.04 10.32 11.63 10.32 12.93 0 0.61 1.21 2.52 2.60 4.34 2.08 2.60 2.60 4.16 2.60 7.29 0 3.04 0.61 4.86 2.17 7.03 1.91 2.52 2.08 3.56 1.65 7.03 -0.43 3.38 -0.17 4.95 1.74 8.85 1.91 3.82 2.26 5.47 1.74 7.98 l-0.61 3.30 -1.48 -3.04 c-0.78 -1.65 -2.08 -3.99 -2.86 -5.12 -0.87 -1.13 -1.48 -2.86 -1.48 -3.90 0 -1.13 -1.48 -3.21 -3.64 -5.21 -4.60 -4.08 -5.81 -6.07 -5.90 -9.63 0 -3.04 -1.30 -4.51 -2.08 -2.34 -1.13 2.95 1.21 8.16 5.73 12.49 l4.51 4.25 -1.04 6.42 c-1.30 7.46 -0.43 10.41 3.21 11.80 l2.26 0.78 -2.60 0.09 c-1.48 0.09 -3.56 -0.52 -4.60 -1.30z"/>
  <path d="M628.52 602.58 c-1.48 -2.17 -1.04 -7.38 0.61 -7.38 1.04 0 3.38 5.38 3.38 7.81 0 2.43 -2.26 2.17 -3.99 -0.43z"/>
  <path d="M592.34 601.11 c-1.30 -0.43 -2.52 -1.65 -2.78 -2.69 -0.87 -4.25 -2.17 -12.32 -2.17 -13.88 0 -1.56 0.09 -1.56 2.08 -0.26 1.21 0.78 2.34 1.04 2.69 0.61 0.26 -0.52 -0.61 -1.39 -1.82 -2 -1.30 -0.61 -2.34 -1.48 -2.34 -1.82 0.09 -0.35 0.95 -3.73 2.08 -7.55 l2 -6.85 2.95 3.04 c1.56 1.65 4.08 3.21 5.47 3.56 2.08 0.35 2.60 1.04 2.95 3.64 0.35 1.74 0.69 3.99 0.95 5.03 0.26 1.65 -0.09 2 -2.69 2.52 -4.60 0.87 -4.60 2.17 -0.09 1.56 3.56 -0.52 3.99 -0.43 3.99 1.13 0 1.82 -8.50 14.32 -9.98 14.66 -0.43 0.09 -1.91 -0.17 -3.30 -0.69z"/>
  <path d="M563.54 590.35 c0.95 -7.03 1.21 -7.72 3.99 -9.98 1.65 -1.30 3.99 -3.47 5.29 -4.77 2.26 -2.08 2.69 -2.17 5.03 -1.21 1.39 0.61 3.56 0.78 4.77 0.52 2.86 -0.69 2.78 -0.09 -0.87 6.07 -3.47 5.73 -7.38 9.54 -10.76 10.32 -1.21 0.26 -3.04 1.74 -3.99 3.30 -0.95 1.48 -2.34 2.86 -3.12 3.04 -1.21 0.26 -1.30 -0.52 -0.35 -7.29z"/>
  <path d="M576.64 572.73 c-0.43 -0.61 0.26 -0.95 1.65 -0.95 2.78 0 5.29 -1.21 8.50 -4.16 l2.34 -2.26 0 3.21 c0 1.65 -0.26 3.30 -0.61 3.47 -1.74 1.04 -11.37 1.56 -11.89 0.69z"/>
  <path d="M568.22 571 c-2.43 -2 -2.26 -2.34 1.82 -3.12 2.95 -0.52 3.04 -0.43 3.21 2.08 0.26 3.21 -1.82 3.64 -5.03 1.04z"/>
  <path d="M596.42 567.96 c-4.16 -4.16 -4.77 -6.59 -2.52 -10.93 1.13 -2.17 1.91 -2.60 4.60 -2.60 2.34 0 2.86 -0.26 1.91 -0.87 -0.69 -0.43 -2.17 -0.87 -3.21 -0.87 -1.13 0 -2 -0.35 -2 -0.69 0 -1.13 3.56 -4.16 6.59 -5.73 2.60 -1.30 2.95 -1.21 5.64 0.61 2.60 1.74 4.69 5.90 3.56 7.03 -0.26 0.26 -1.48 0.61 -2.69 0.61 -2.17 0.09 -2.17 0.17 0.35 0.78 l2.60 0.69 -2.34 0.09 c-3.30 0.09 -3.12 1.82 0.17 1.82 3.04 0 3.21 0.78 0.78 6.07 -3.99 8.85 -7.64 9.89 -13.45 3.99z m9.63 -1.39 c0 -0.87 -1.04 -1.39 -3.21 -1.56 -3.21 -0.26 -4.43 1.04 -2.69 2.78 1.13 1.13 5.90 0.17 5.90 -1.21z m-5.12 -10.32 c-0.26 -0.43 -1.30 -0.61 -2.26 -0.35 -2.43 0.61 -2.17 1.13 0.52 1.13 1.21 0 2 -0.35 1.74 -0.78z"/>
  <path d="M840.23 740.54 c-0.26 -0.69 -0.26 -1.65 0.09 -2.17 0.52 -0.87 12.58 -1.30 12.58 -0.35 0 0.26 -0.43 1.21 -0.87 2.17 -0.78 1.30 -1.91 1.65 -6.16 1.65 -3.73 0 -5.29 -0.35 -5.64 -1.30z"/>
  <path d="M777.15 736.03 c-0.87 -0.26 -1.39 -0.87 -1.21 -1.39 0.26 -0.69 2.17 -0.95 5.47 -0.87 6.51 0.35 9.20 0.95 8.59 2 -0.52 0.87 -9.89 1.04 -12.84 0.26z"/>
  <path d="M795.98 654.64 l-2.34 -3.12 1.82 -1.82 c2.52 -2.52 4.51 -0.87 4.51 3.73 0 4.51 -1.21 4.86 -3.99 1.21z"/>
  <path d="M809.78 651.52 c-3.04 -0.35 -5.90 -0.95 -6.42 -1.30 -0.61 -0.35 -0.78 -3.12 -0.35 -8.50 0.43 -5.64 0.17 -10.15 -0.78 -15.70 -0.78 -4.25 -1.39 -8.07 -1.39 -8.42 0 -0.35 7.72 -0.52 17.09 -0.43 l17.18 0.26 0.52 3.12 c0.26 2 1.91 4.77 4.60 7.72 6.68 7.64 6.51 10.76 -0.78 16.14 -7.98 5.99 -18.83 8.59 -29.67 7.11z m13.62 -15.01 c0 -3.04 -1.13 -4.77 -2.08 -3.21 -0.69 1.13 0.43 6.16 1.30 6.16 0.43 0 0.78 -1.30 0.78 -2.95z"/>
  <path d="M798.50 645.36 c-3.47 -4.08 -4.77 -21.69 -2.26 -28.81 l1.56 -4.16 1.04 7.64 c1.74 13.10 2.17 19.70 1.39 23.25 -0.61 2.78 -0.87 3.12 -1.74 2.08z"/>
  <path d="M818.71 607.79 c-0.69 -4.25 -0.35 -5.29 1.13 -4.34 1.13 0.61 1.21 5.55 0.17 7.29 -0.52 0.78 -0.95 -0.17 -1.30 -2.95z"/>
  <path d="M853.33 606.31 c-2.69 -1.48 -3.04 -2.43 -3.04 -7.98 0 -7.46 -2.78 -11.80 -9.11 -14.40 -7.20 -2.95 -10.50 -8.33 -6.85 -11.37 0.78 -0.61 2.52 -3.47 3.99 -6.33 2 -3.90 2.60 -6.42 2.69 -10.15 0 -5.99 -1.48 -8.76 -6.33 -11.19 -3.47 -1.74 -3.47 -1.74 -6.68 -0.09 -4.16 2.08 -5.90 3.99 -7.46 8.33 -0.69 1.91 -1.82 4.86 -2.43 6.51 -1.21 2.95 -5.29 7.20 -8.94 9.28 -4.69 2.69 -8.76 -0.17 -5.64 -3.99 2 -2.43 2.26 -7.72 0.35 -8.42 -2.43 -0.95 -1.30 -2.08 2 -2.08 3.82 0 5.99 -1.82 8.42 -7.20 0.87 -1.74 2.52 -3.99 3.82 -4.86 4.51 -3.12 12.32 -4.69 13.54 -2.69 0.26 0.52 1.82 0.87 3.30 0.87 1.56 0.09 3.73 0.61 4.77 1.21 2.34 1.30 10.24 11.19 11.11 13.88 0.35 1.04 1.48 2.95 2.60 4.25 1.56 1.82 2.08 3.56 2.08 6.68 0 3.30 0.52 4.77 2.26 6.94 2.08 2.34 2.26 3.12 1.74 7.03 -0.52 3.64 -0.26 4.86 1.65 7.98 2.17 3.82 3.04 11.02 1.30 11.02 -0.43 0 -0.87 -0.52 -0.87 -1.13 0 -0.61 -0.95 -2.43 -2 -4.08 -1.13 -1.65 -2.52 -4.34 -3.04 -5.90 -0.52 -1.65 -2.95 -4.77 -5.38 -7.03 -3.64 -3.47 -4.34 -4.60 -4.34 -7.20 0 -1.74 -0.43 -3.47 -0.95 -3.82 -0.78 -0.43 -0.87 0.69 -0.61 3.99 0.43 4.16 0.87 5.03 4.86 8.76 2.34 2.26 4.60 4.86 4.86 5.81 0.35 0.95 0 3.90 -0.78 6.51 -1.65 5.64 -0.87 8.50 2.78 10.50 l2.43 1.30 -2.17 0 c-1.21 0 -2.95 -0.43 -3.90 -0.95z"/>
  <path d="M856.11 603.28 c-0.95 -0.87 -0.69 -7.90 0.26 -8.50 0.87 -0.52 4.34 5.64 4.34 7.81 0 1.30 -3.47 1.91 -4.60 0.69z"/>
  <path d="M819.84 601.19 c-2.60 -0.95 -3.73 -4.16 -4.77 -13.27 -0.61 -4.95 -0.61 -5.03 1.21 -4.08 2.69 1.48 4.08 1.30 2.78 -0.35 -0.61 -0.69 -1.65 -1.30 -2.26 -1.30 -1.65 0 -1.56 -1.13 0.78 -8.42 l2 -6.25 2.17 2.17 c1.21 1.21 3.73 2.69 5.64 3.38 3.04 1.04 3.47 1.48 3.90 4.95 0.35 2 0.87 5.21 1.21 6.94 0.61 2.95 0.26 3.90 -3.90 10.24 -4.69 7.20 -4.95 7.38 -8.76 5.99z m12.15 -16.05 c0.17 -0.17 -1.04 -0.35 -2.78 -0.35 -1.74 0 -3.30 0.35 -3.64 0.78 -0.43 0.78 5.55 0.35 6.42 -0.43z"/>
  <path d="M789.47 596.59 c0.61 -0.69 1.30 -3.56 1.56 -6.33 0.61 -6.42 2.17 -9.46 5.99 -11.71 2.52 -1.48 4.69 -3.90 4.69 -5.29 0 -0.26 -0.95 -0.35 -2.17 -0.35 -2.34 0 -5.64 -2.43 -5.64 -4.08 0 -0.52 1.56 -0.95 3.47 -0.95 2.60 -0.09 3.47 0.26 3.47 1.30 0 2.95 2.34 4.69 6.85 5.21 l4.43 0.43 -2.08 4.43 c-2.69 5.81 -7.72 11.37 -10.93 12.06 -1.39 0.26 -3.47 1.82 -4.77 3.56 -1.30 1.65 -3.04 2.95 -4.08 2.95 -1.48 0 -1.56 -0.26 -0.78 -1.21z"/>
  <path d="M804.74 572.65 c-1.48 -0.69 -1.39 -0.78 0.69 -0.78 3.12 -0.09 5.47 -1.30 9.20 -4.77 l2.95 -2.69 -0.52 3.38 c-0.35 1.91 -0.87 3.64 -1.21 3.99 -1.13 1.04 -9.20 1.65 -11.11 0.87z"/>
  <path d="M823.74 567.96 c-4.16 -4.16 -4.77 -6.59 -2.52 -10.93 1.13 -2.17 1.91 -2.60 4.43 -2.60 1.82 0 2.86 -0.35 2.52 -0.87 -0.26 -0.43 -1.74 -0.87 -3.12 -0.87 -2.26 0 -2.43 -0.17 -1.65 -1.65 1.39 -2.78 6.68 -5.55 9.20 -4.95 2.86 0.78 6.42 4.34 6.42 6.51 0 1.30 -0.69 1.82 -2.78 2.08 l-2.86 0.35 2.86 0.09 c1.48 0.09 2.78 0.52 2.78 1.04 0 0.43 -1.13 0.61 -2.60 0.35 -1.65 -0.35 -2.60 -0.17 -2.60 0.43 0 0.52 1.21 0.95 2.60 0.95 3.04 0 3.21 0.78 0.78 6.07 -3.99 8.85 -7.64 9.89 -13.45 3.99z m9.89 -1.56 c0.26 -1.30 -0.35 -1.56 -3.21 -1.56 -3.38 0 -4.60 1.21 -2.95 2.95 1.21 1.21 5.90 0.09 6.16 -1.39z m-6.42 -9.02 c1.91 -0.78 0.87 -2 -1.21 -1.48 -0.95 0.26 -1.48 0.78 -1.21 1.21 0.52 0.95 0.69 0.95 2.43 0.26z"/>
  <path d="M146.81 338.47 c-0.69 -0.43 -1.04 -1.48 -0.87 -2.34 0.26 -1.39 1.13 -1.65 6.25 -1.65 6.33 0 7.72 0.87 5.29 3.38 -1.56 1.48 -8.68 1.91 -10.67 0.61z"/>
  <path d="M86.76 333.18 c-5.03 -0.35 -6.51 -0.69 -6.51 -1.74 0 -1.04 1.21 -1.30 6.51 -1.04 6.25 0.17 9.11 1.21 7.38 2.60 -0.52 0.35 -3.82 0.43 -7.38 0.17z"/>
  <path d="M101.78 251.44 c-2.34 -2.69 -2.78 -4.16 -1.91 -6.59 0.52 -1.48 1.30 -1.91 2.69 -1.74 1.74 0.26 2 0.87 2.26 4.51 0.35 5.21 -0.61 6.42 -3.04 3.82z"/>
  <path d="M102.04 235.13 c-0.78 -2.17 -2.26 -12.41 -2.26 -16.23 0 -2 0.43 -4.69 1.04 -6.07 l0.95 -2.43 0.69 3.47 c1.30 6.59 1.82 18.22 0.95 20.39 -0.61 1.65 -0.95 1.82 -1.39 0.87z"/>
  <path d="M125.11 214.14 c-0.61 -3.47 -1.21 -8.76 -1.56 -11.71 -0.52 -5.21 -0.43 -5.47 1.30 -5.47 1.74 0 1.82 0.35 1.82 11.71 0 6.42 -0.17 11.71 -0.35 11.71 -0.17 0 -0.69 -2.86 -1.21 -6.25z"/>
  <path d="M158.09 199.91 c-1.65 -1.13 -1.91 -2.08 -1.91 -7.11 0 -8.24 -1.74 -11.19 -8.42 -14.49 -6.68 -3.30 -7.81 -4.34 -8.50 -7.46 -0.43 -2 -0.09 -3.21 1.74 -5.55 3.82 -5.12 5.64 -9.98 5.64 -15.62 0 -6.16 -1.21 -8.85 -5.12 -11.45 -3.73 -2.52 -5.99 -2.52 -9.72 0 -3.12 2 -9.28 12.49 -9.37 15.88 -0.09 2.86 -7.55 9.02 -10.93 9.02 -0.95 0 -2.34 -0.35 -3.04 -0.87 -1.04 -0.69 -0.95 -1.30 0.69 -4.16 2.43 -4.34 2.43 -6.07 0 -8.59 l-1.82 -2 3.56 0 c3.99 0 5.64 -1.30 7.64 -5.90 1.74 -4.25 3.56 -6.07 8.33 -8.50 4.69 -2.34 8.68 -2.69 10.24 -0.78 0.52 0.69 2.26 1.21 3.82 1.13 1.48 -0.09 3.56 0.35 4.60 0.95 2.17 1.13 8.85 9.54 11.11 13.97 0.78 1.65 2.17 3.82 3.04 4.77 0.87 1.04 1.74 3.73 1.91 6.33 0.26 2.86 1.21 5.64 2.34 7.11 1.48 2.08 1.82 3.56 1.65 7.72 -0.17 4.08 0.09 5.64 1.56 7.64 2.52 3.47 3.21 5.99 2.52 9.63 l-0.61 3.21 -2 -3.90 c-1.13 -2.17 -2.86 -5.64 -3.90 -7.81 -1.04 -2.17 -3.64 -5.47 -5.73 -7.38 -3.04 -2.69 -3.99 -4.25 -4.34 -6.94 -0.78 -5.47 -1.13 -6.33 -2.17 -4.60 -1.65 2.95 0.78 8.59 5.47 13.10 4.77 4.51 5.03 5.21 3.82 13.80 -0.69 4.77 -0.61 5.03 1.91 7.64 l2.60 2.60 -2.34 0 c-1.21 0 -3.21 -0.61 -4.25 -1.39z"/>
  <path d="M163.55 197.48 c-1.65 -1.21 -2.34 -6.68 -1.04 -7.98 1.04 -1.04 3.12 1.48 3.73 4.60 0.69 3.64 -0.43 5.03 -2.69 3.38z"/>
  <path d="M125.11 195.13 c-1.04 -0.43 -2.08 -1.21 -2.26 -1.82 -1.30 -4.51 -3.30 -15.53 -2.86 -15.96 0.26 -0.26 1.30 -0.09 2.26 0.52 2.43 1.21 2.34 -0.26 0 -1.91 l-1.91 -1.21 1.91 -4.95 c0.95 -2.78 1.82 -5.99 1.82 -7.11 0 -2.60 1.30 -2.78 2.60 -0.35 1.21 2.17 5.90 5.12 8.33 5.12 1.56 0 1.91 0.69 2.34 4.95 0.61 5.47 0.09 6.33 -3.90 6.33 -1.30 0 -2.60 0.43 -2.95 1.04 -0.43 0.69 0.17 0.78 2.08 0.43 3.47 -0.69 3.47 0 0.17 4.16 -1.48 1.82 -3.04 4.86 -3.64 6.85 -1.30 4.51 -1.56 4.86 -3.99 3.90z"/>
  <path d="M94.92 189.41 c0.26 -1.39 0.69 -4.77 1.04 -7.64 0.61 -5.38 0.87 -5.73 8.07 -11.80 2.95 -2.60 3.56 -4.34 1.13 -3.64 -1.82 0.43 -6.25 -2.78 -6.25 -4.60 0 -0.87 1.04 -1.21 3.47 -1.21 3.12 0 3.47 0.26 3.47 2.08 0 3.04 3.82 5.73 7.90 5.73 1.91 0 3.38 0.35 3.38 0.69 0 1.13 -5.99 10.85 -8.07 13.01 -0.95 1.04 -3.30 2.34 -5.12 2.78 -1.82 0.52 -3.64 1.65 -4.16 2.60 -1.13 2.17 -3.38 4.34 -4.51 4.34 -0.43 0 -0.61 -1.04 -0.35 -2.34z"/>
  <path d="M108.98 165.81 c-0.26 -0.43 1.13 -0.95 3.04 -1.21 2.60 -0.35 4.51 -1.39 6.94 -3.73 l3.38 -3.30 0 2.52 c0 6.07 -0.52 6.51 -7.03 6.51 -3.21 0 -6.07 -0.35 -6.33 -0.78z"/>
  <path d="M129.02 161.47 c-4.08 -4.51 -4.77 -7.29 -2.78 -11.02 1.21 -2.26 2.17 -2.95 4.69 -3.21 l3.12 -0.26 -2.78 -0.69 c-3.47 -0.87 -3.56 -1.30 -0.43 -4.16 4.25 -3.99 5.99 -4.51 9.20 -2.52 2.34 1.48 4.86 4.95 4.86 6.59 0 0.26 -1.13 0.43 -2.60 0.43 -3.30 0 -3.38 1.48 -0.17 2 2.17 0.35 2.17 0.35 -0.43 0.52 -1.56 0 -2.86 0.43 -2.86 0.87 0 1.30 2 1.65 3.73 0.78 0.87 -0.43 1.82 -0.61 2.08 -0.35 0.78 0.69 -1.13 6.42 -3.47 10.50 -1.74 3.04 -2.34 3.47 -5.47 3.73 -3.21 0.26 -3.90 -0.09 -6.68 -3.21z m9.80 -0.52 c1.39 -1.74 0.87 -2.17 -2.86 -2.69 -3.64 -0.43 -5.12 1.13 -2.78 2.86 2.17 1.48 4.34 1.48 5.64 -0.17z m-0.87 -4.77 c0 -0.43 -0.61 -0.87 -1.30 -0.87 -0.69 0 -1.30 0.43 -1.30 0.87 0 0.52 0.61 0.87 1.30 0.87 0.69 0 1.30 -0.35 1.30 -0.87z m-4.34 -6.85 c0 -0.43 -1.04 -0.52 -2.34 -0.26 -2.08 0.43 -2.17 0.52 -0.69 1.04 1.82 0.69 3.04 0.35 3.04 -0.78z"/>
  <path d="M379.77 338.64 c-1.04 -0.26 -1.48 -1.04 -1.30 -2.26 0.26 -1.74 0.78 -1.91 6.25 -1.91 6.33 0 7.72 0.87 5.29 3.38 -1.39 1.30 -6.51 1.74 -10.24 0.78z"/>
  <path d="M312.87 332.48 c-0.17 -0.35 -0.09 -1.21 0.26 -1.82 0.95 -1.48 12.67 -0.35 14.06 1.30 0.87 1.04 -0.26 1.21 -6.42 1.21 -4.08 0 -7.64 -0.35 -7.90 -0.69z"/>
  <path d="M334.13 251.10 c-2.17 -2.69 -2.34 -5.81 -0.52 -7.29 2.52 -2.08 3.90 -0.35 3.90 4.77 0 5.29 -0.78 5.90 -3.38 2.52z"/>
  <path d="M334.65 234.61 c-0.26 -0.87 -0.95 -4.86 -1.56 -8.76 -0.78 -5.64 -0.69 -8.07 0.17 -11.71 1.04 -4.51 1.13 -4.51 1.82 -2 1.21 4.51 1.91 20.82 0.95 22.56 -0.87 1.56 -0.95 1.48 -1.39 -0.09z"/>
  <path d="M357.64 212.05 c-1.56 -11.71 -1.39 -15.10 0.61 -15.10 1.48 0 1.56 0.69 1.21 10.67 -0.26 5.81 -0.52 11.02 -0.61 11.45 -0.17 0.52 -0.69 -2.69 -1.21 -7.03z"/>
  <path d="M390.44 199.56 c-1.39 -1.39 -1.74 -2.86 -1.74 -7.11 0 -7.72 -1.82 -10.93 -7.81 -13.88 -2.60 -1.21 -5.64 -3.30 -6.68 -4.60 -2 -2.34 -2.69 -6.85 -1.13 -7.81 0.43 -0.26 1.91 -2.26 3.12 -4.43 4.77 -8.16 4.77 -16.92 -0.17 -21.78 -1.48 -1.56 -3.56 -2.86 -4.60 -2.86 -2.43 0 -2.34 -1.39 0.26 -3.04 1.82 -1.21 2.43 -1.21 5.12 -0.09 3.47 1.39 10.24 9.37 12.84 14.92 0.87 2 2.17 3.99 2.78 4.60 0.69 0.52 1.48 3.12 1.74 5.73 0.26 2.78 1.21 5.81 2.34 7.29 1.39 2.08 1.74 3.64 1.56 7.72 -0.17 4.08 0.17 5.55 1.74 7.46 2.17 2.78 3.21 7.29 2.34 10.06 -0.52 1.56 -0.95 1.21 -3.56 -3.12 -1.65 -2.69 -2.95 -5.47 -2.95 -6.16 0 -0.69 -1.91 -3.04 -4.25 -5.38 -4.43 -4.16 -6.16 -7.29 -6.16 -11.02 0 -1.13 -0.35 -2.08 -0.87 -2.08 -1.13 0 -1.13 4.43 0 7.29 0.43 1.30 2.86 4.25 5.29 6.59 4.34 4.25 4.43 4.43 3.90 8.07 -1.82 11.54 -2 10.85 2.52 14.06 1.65 1.21 1.56 1.21 -1.04 1.30 -1.74 0 -3.56 -0.69 -4.60 -1.74z"/>
  <path d="M395.65 196.96 c-1.82 -1.82 -2.08 -3.38 -1.21 -6.68 0.78 -3.04 2 -2.43 3.90 2 2.60 5.73 1.04 8.42 -2.69 4.69z"/>
  <path d="M356.78 194.53 c-1.21 -0.78 -4.25 -16.31 -3.38 -17.18 0.35 -0.35 1.13 -0.09 1.91 0.52 0.78 0.61 1.56 0.87 1.82 0.61 0.78 -0.78 -0.43 -2.34 -1.91 -2.34 -1.56 0 -1.56 -1.13 0.09 -6.42 0.69 -2.34 1.30 -5.38 1.30 -6.77 0 -1.30 0.26 -2.43 0.52 -2.43 0.35 0 2.26 1.56 4.34 3.47 2.26 2.08 4.60 3.47 5.90 3.47 1.91 0 2.17 0.43 2.69 4.69 0.35 2.60 0.35 5.12 0 5.64 -0.26 0.52 -1.91 0.95 -3.56 0.95 -3.38 0 -4.08 1.48 -0.78 1.91 l2.08 0.26 -2.52 3.82 c-1.48 2.08 -3.04 5.29 -3.47 7.20 -0.95 3.30 -2.52 4.16 -5.03 2.60z"/>
  <path d="M328.23 185.50 c0.95 -7.64 2.52 -11.28 5.47 -12.93 1.21 -0.61 3.21 -2.26 4.34 -3.64 1.65 -2 2.34 -2.26 3.73 -1.48 0.95 0.43 3.30 0.87 5.21 0.87 2 0 3.56 0.26 3.56 0.52 0 1.21 -6.16 10.59 -8.33 12.75 -1.30 1.30 -3.90 2.78 -5.81 3.38 -2.43 0.69 -3.99 1.91 -5.21 3.90 -2.86 4.86 -3.90 3.73 -2.95 -3.38z"/>
  <path d="M333.78 164.85 c-3.56 -2.78 -3.04 -4.34 1.39 -4.34 3.56 0 3.64 0.09 3.56 2.78 -0.09 3.56 -1.82 3.99 -4.95 1.56z"/>
  <path d="M340.99 165.89 c0 -0.43 1.65 -1.04 3.56 -1.30 2.60 -0.35 4.51 -1.39 6.94 -3.73 l3.38 -3.30 0 3.38 c0 1.91 -0.35 3.90 -0.69 4.43 -0.78 1.13 -13.19 1.56 -13.19 0.52z"/>
  <path d="M365.71 164.51 c-3.04 -1.30 -7.03 -6.16 -7.90 -9.54 -0.78 -3.21 3.12 -8.42 5.81 -7.72 l1.82 0.52 -1.91 1.04 -2 1.13 1.82 0.52 c2.43 0.78 3.73 0 3.04 -1.91 -0.78 -2 -2 -2.78 -4.43 -2.78 -1.65 0 -1.82 -0.26 -1.13 -1.56 0.43 -0.87 2.43 -2.69 4.34 -3.99 3.21 -2.26 3.82 -2.34 6.07 -1.39 3.21 1.30 5.03 3.21 5.73 6.25 0.61 2.34 0.52 2.43 -2.26 2 l-2.95 -0.43 3.04 1.04 3.04 1.04 -2.78 0.35 c-1.56 0.17 -2.86 0.69 -2.86 1.21 0 0.52 1.04 0.69 2.60 0.43 2.34 -0.52 2.60 -0.35 2.60 1.82 0 2.95 -2.95 8.68 -5.73 11.28 -2.52 2.17 -2.52 2.17 -5.99 0.69z m5.12 -2.78 c2.43 -0.95 1.48 -2.86 -1.74 -3.47 -3.99 -0.69 -5.55 0.69 -2.86 2.60 2.26 1.56 2.60 1.65 4.60 0.87z m0.17 -5.47 c-0.26 -0.43 -1.30 -0.61 -2.26 -0.35 -2.43 0.61 -2.17 1.13 0.52 1.13 1.21 0 2 -0.35 1.74 -0.78z"/>
  <path d="M341.07 161.90 c-0.78 -0.95 -0.61 -1.82 0.78 -4.16 2.26 -3.64 2.17 -5.73 -0.17 -8.24 l-1.82 -2 2.52 0 c5.12 0 6.42 -0.95 9.02 -6.07 2.78 -5.55 5.55 -7.90 11.02 -9.54 3.90 -1.21 8.42 -0.52 7.81 1.13 -0.17 0.52 -1.74 1.30 -3.56 1.65 -7.29 1.56 -11.97 8.07 -11.71 16.31 0.17 4.16 0 4.69 -3.12 7.55 -4.86 4.43 -8.85 5.73 -10.76 3.38z"/>
  <path d="M361.29 139.86 c1.48 -1.48 3.21 -2.78 3.90 -2.78 1.04 0.09 0.95 0.26 -0.35 1.04 -0.95 0.52 -2.69 1.74 -3.90 2.78 -1.74 1.39 -1.65 1.21 0.35 -1.04z"/>
  <path d="M614.99 338.64 c-1.39 -0.26 -2.43 -0.95 -2.43 -1.65 0 -1.74 3.64 -2.95 8.76 -2.95 3.90 0 4.25 0.17 4.25 2.08 0 2.95 -2.95 3.64 -10.59 2.52z"/>
  <path d="M554.43 333.18 c-3.56 -0.26 -6.42 -0.69 -6.25 -1.04 0.09 -0.43 0.17 -1.13 0.17 -1.65 0 -1.13 12.06 -0.17 13.45 1.04 1.56 1.56 -0.87 2.08 -7.38 1.65z"/>
  <path d="M569.70 252.05 c-3.12 -3.21 -2.78 -9.46 0.61 -8.94 1.65 0.26 1.91 0.95 2.17 4.51 0.35 4.86 -0.69 6.51 -2.78 4.43z"/>
  <path d="M568.40 229.49 c-1.39 -9.46 -1.04 -18.65 0.69 -18.65 0.35 0 1.13 4.08 1.65 9.02 1.04 8.59 0.69 16.14 -0.69 16.14 -0.35 0 -1.13 -2.95 -1.65 -6.51z"/>
  <path d="M593.12 218.04 c-0.61 -3.82 -2.26 -18.39 -2.26 -19.96 0 -0.61 0.78 -1.13 1.74 -1.13 1.65 0 1.74 0.61 1.74 12.15 0 6.68 -0.17 12.15 -0.35 12.15 -0.17 0 -0.61 -1.48 -0.87 -3.21z"/>
  <path d="M626.44 200.17 c-1.91 -0.95 -2.26 -1.74 -2.60 -7.55 -0.69 -8.85 -2.43 -11.63 -9.28 -14.75 -3.73 -1.74 -5.73 -3.21 -6.68 -5.12 -1.91 -3.64 -1.74 -5.03 0.95 -8.24 3.47 -4.16 5.47 -9.20 5.47 -14.23 0 -6.51 -1.74 -10.15 -6.07 -12.32 -1.91 -0.95 -3.30 -2.17 -3.04 -2.60 0.95 -1.56 -3.47 -0.87 -7.38 1.13 -5.21 2.52 -8.16 7.81 -7.98 14.06 0.09 4.16 -0.09 4.69 -3.56 7.98 -3.99 3.82 -6.59 5.03 -9.28 4.16 -2 -0.61 -2.26 -3.21 -0.52 -4.69 0.69 -0.61 1.56 -2.26 1.82 -3.73 0.43 -2 0.17 -3.04 -1.39 -4.69 l-1.91 -2.08 2.78 0 c4.08 0 5.90 -1.30 8.33 -5.99 2.52 -5.03 6.25 -8.33 10.67 -9.63 4.51 -1.21 6.77 -1.13 8.42 0.52 0.69 0.78 1.91 1.13 2.69 0.87 3.73 -1.39 12.58 6.59 15.70 14.23 0.69 1.65 2.17 3.99 3.30 5.21 1.39 1.48 2.08 3.56 2.34 6.77 0.26 2.86 1.21 5.64 2.34 7.11 1.48 2 1.82 3.64 1.65 7.55 -0.17 4.25 0.17 5.55 2.17 8.42 2.26 3.21 3.21 8.94 1.74 10.32 -0.61 0.69 -3.56 -3.82 -6.25 -9.54 -0.95 -2 -3.73 -5.55 -6.07 -7.90 -3.64 -3.38 -4.43 -4.77 -4.43 -7.20 0 -1.65 -0.43 -3.56 -0.87 -4.25 -1.39 -2.17 -1.04 5.81 0.35 8.50 0.69 1.30 3.04 3.99 5.29 5.99 l4.08 3.64 -0.69 5.03 c-1.13 8.16 -0.87 9.89 1.91 12.15 l2.52 2 -2.17 0 c-1.21 0 -3.12 -0.52 -4.34 -1.13z"/>
  <path d="M631.47 197.74 c-1.13 -0.61 -1.56 -2 -1.56 -5.12 0 -5.47 1.30 -5.55 3.56 -0.35 2.43 5.29 1.56 7.55 -2 5.47z"/>
  <path d="M591.04 194.18 c-0.43 -0.61 -1.30 -3.21 -1.82 -5.81 -0.95 -4.60 -0.95 -4.86 1.21 -6.77 1.21 -1.13 2.17 -2.34 2.17 -2.69 0 -0.35 -1.13 -1.56 -2.60 -2.78 -3.47 -2.95 -2.43 -4.95 1.82 -3.64 1.65 0.52 5.38 1.21 8.42 1.56 4.43 0.43 5.38 0.87 5.38 2.17 0 1.04 -0.78 1.82 -2.34 2.08 -4.25 0.95 -5.03 1.74 -5.12 5.47 -0.09 2 -0.61 5.38 -1.21 7.55 -0.87 3.12 -1.48 3.90 -3.04 3.90 -1.04 0 -2.34 -0.52 -2.86 -1.04z"/>
  <path d="M562.84 186.80 c0.87 -9.46 1.65 -11.19 6.77 -15.01 2.60 -1.91 4.77 -3.90 4.77 -4.43 0 -0.61 0.61 -0.69 1.56 -0.26 0.78 0.35 3.38 0.87 5.64 1.13 l4.16 0.52 -3.56 5.64 c-4.95 7.64 -6.68 9.46 -10.50 10.41 -2 0.52 -4.08 2 -5.47 3.90 -1.30 1.65 -2.69 3.04 -3.12 3.04 -0.43 0 -0.52 -2.26 -0.26 -4.95z"/>
  <path d="M600.06 182.38 c-0.26 -0.52 -0.09 -1.21 0.43 -1.48 1.30 -0.87 2.17 0.26 1.04 1.39 -0.61 0.61 -1.13 0.61 -1.48 0.09z"/>
  <path d="M596.25 166.59 c-3.82 -1.74 -5.38 -3.82 -3.90 -5.29 0.61 -0.61 1.56 -0.09 2.78 1.74 1.21 1.65 3.21 2.95 5.38 3.56 1.82 0.52 3.38 1.13 3.38 1.30 0 0.95 -4.16 0.26 -7.64 -1.30z"/>
  <path d="M567.79 164.42 c-2.78 -2.78 -2.08 -3.90 2.60 -3.90 l3.64 0 -0.35 3.04 c-0.43 3.73 -2.69 4.08 -5.90 0.87z"/>
  <path d="M576.12 165.81 c0 -0.35 1.65 -0.95 3.56 -1.21 2.60 -0.35 4.51 -1.39 6.94 -3.73 l3.38 -3.30 0 3.47 c0 1.91 -0.43 3.90 -1.04 4.51 -1.21 1.21 -12.84 1.48 -12.84 0.26z"/>
  <path d="M600.59 164.51 c-3.56 -1.21 -7.98 -6.94 -7.98 -10.24 0 -1.48 0.87 -3.73 1.82 -5.21 1.48 -2.08 2.26 -2.43 3.99 -2 1.39 0.35 1.91 0.17 1.56 -0.43 -0.26 -0.43 -1.48 -0.87 -2.69 -0.87 -1.91 0 -2 -0.17 -1.21 -1.74 0.52 -0.95 2.52 -2.78 4.43 -4.08 3.47 -2.26 3.56 -2.34 6.42 -0.78 3.56 1.91 5.21 5.03 4.86 9.02 0 0.61 -1.21 1.04 -2.78 1.04 -1.65 0 -2.43 0.35 -2.08 0.95 0.35 0.52 1.65 0.61 3.12 0.35 2.86 -0.61 3.12 0.17 1.48 4.86 -1.48 4.51 -4.69 9.20 -6.51 9.63 -0.95 0.26 -2.86 0 -4.43 -0.52z m5.55 -3.47 c2.08 -1.56 1.56 -2 -2.95 -2.78 -2.95 -0.43 -3.64 -0.35 -3.64 0.78 0 1.39 2.17 3.12 3.99 3.21 0.43 0 1.65 -0.52 2.60 -1.21z m-4.86 -11.37 c0 -1.39 -3.04 -1.82 -3.90 -0.52 -0.35 0.69 0.78 1.30 3.30 1.74 0.35 0 0.61 -0.52 0.61 -1.21z"/>
  <path d="M594.77 141.17 c1.13 -1.82 5.55 -4.60 6.07 -3.90 0.09 0.17 -1.56 1.56 -3.64 3.12 -3.21 2.43 -3.56 2.52 -2.43 0.78z"/>
  <path d="M851.34 338.47 c-0.69 -0.43 -1.04 -1.48 -0.87 -2.34 0.26 -1.39 1.21 -1.65 6.59 -1.91 6.07 -0.26 6.25 -0.17 6.25 1.82 0 1.48 -0.61 2.34 -1.91 2.69 -2.86 0.78 -8.76 0.61 -10.06 -0.26z"/>
  <path d="M785.22 331.88 c0 -0.78 0.52 -1.56 1.13 -1.82 2 -0.69 13.01 0.95 13.45 2.08 0.26 0.78 -1.56 1.04 -7.11 1.04 -6.16 0 -7.46 -0.26 -7.46 -1.30z"/>
  <path d="M807 251.53 c-2.43 -2.60 -2.95 -4.69 -1.82 -6.85 0.61 -1.21 1.65 -1.74 2.86 -1.56 1.65 0.26 1.91 0.87 2.17 4.51 0.35 5.21 -0.69 6.59 -3.21 3.90z"/>
  <path d="M806.56 233.66 c-1.65 -7.81 -2.08 -14.75 -1.21 -18.74 0.52 -2.60 1.21 -3.90 1.65 -3.47 1.21 1.21 2.08 23.34 0.95 24.03 -0.52 0.26 -1.13 -0.43 -1.39 -1.82z"/>
  <path d="M831.21 221.94 c0 -0.17 -0.61 -4.51 -1.30 -9.80 -1.74 -12.84 -1.65 -15.36 0.09 -15.01 1.30 0.26 1.48 1.91 1.74 12.67 0.09 6.77 0.09 12.32 -0.17 12.32 -0.17 0 -0.35 -0.09 -0.35 -0.17z"/>
  <path d="M865.04 200.69 c-3.47 -1.30 -4.34 -3.04 -4.34 -8.94 0 -7.29 -2.08 -10.85 -8.24 -13.71 -5.73 -2.78 -7.20 -4.16 -7.90 -7.72 -0.43 -2.26 -0.17 -3.38 1.21 -4.86 3.90 -4.25 5.81 -9.46 5.81 -15.79 0 -7.38 -1.56 -10.06 -6.77 -12.15 l-3.64 -1.48 2.08 -1.65 c1.13 -0.87 2.43 -1.65 3.04 -1.65 3.73 0 11.19 7.64 15.27 15.70 1.13 2.08 2.52 4.16 3.04 4.69 0.61 0.43 1.30 3.12 1.48 5.81 0.26 3.47 1.04 5.90 2.69 8.24 1.91 2.86 2.17 3.73 1.56 6.59 -0.69 2.78 -0.43 3.99 1.74 7.98 2.43 4.51 3.30 10.24 1.82 11.19 -0.43 0.26 -2.26 -2.60 -4.08 -6.25 -1.91 -3.64 -5.29 -8.68 -7.55 -11.19 -2.95 -3.21 -4.25 -5.38 -4.69 -7.98 -0.61 -3.82 -2.08 -4.86 -2.08 -1.48 0 3.73 1.74 6.94 6.25 11.54 l4.43 4.43 -0.78 5.99 c-0.95 7.90 -0.78 9.02 2.08 11.28 2.08 1.74 2.17 2 0.61 1.91 -0.95 0 -2.34 -0.26 -3.04 -0.52z"/>
  <path d="M868.08 197.48 c-1.21 -0.87 -1.65 -2.17 -1.56 -4.86 0.09 -2 0.35 -3.90 0.61 -4.16 1.56 -1.48 5.55 6.33 4.51 8.94 -0.61 1.65 -1.48 1.65 -3.56 0.09z"/>
  <path d="M828.69 194.09 c-0.52 -0.69 -1.39 -3.21 -1.91 -5.64 -1.04 -4.16 -0.95 -4.69 0.78 -6.51 2.52 -2.69 2.43 -4.43 -0.26 -5.64 -2.34 -1.04 -2.60 -1.65 -1.39 -3.56 0.61 -0.95 1.30 -0.95 3.47 -0.26 1.48 0.52 5.03 1.21 7.90 1.56 2.86 0.35 5.29 0.95 5.38 1.30 0.35 2.34 0 2.78 -2.69 3.04 -3.30 0.43 -5.55 1.82 -4.77 3.12 0.35 0.52 0.87 0.52 1.48 -0.09 1.21 -1.21 3.21 -1.21 3.21 -0.09 0 0.43 -0.95 1.04 -2.17 1.39 -1.56 0.35 -2.17 1.13 -2.17 2.60 0 1.13 -0.43 3.82 -1.04 5.99 -0.87 3.12 -1.48 3.90 -2.95 3.90 -1.04 0 -2.26 -0.52 -2.86 -1.13z"/>
  <path d="M800.23 185.50 c0.95 -8.07 1.91 -9.89 6.68 -13.54 2.17 -1.65 4.43 -3.90 5.03 -5.03 0.78 -1.48 1.82 -2.08 3.73 -2.08 3.30 0 7.03 -1.91 9.28 -4.77 0.95 -1.21 2 -2.17 2.26 -2.17 0.78 0 0.61 2.95 -0.43 5.99 l-0.95 2.69 -6.59 0 c-4.69 0 -6.25 0.26 -5.38 0.87 0.69 0.43 3.04 0.87 5.12 0.87 4.43 0 4.43 0 -1.21 8.59 -3.64 5.47 -7.64 8.76 -10.76 8.76 -0.43 0 -1.91 1.39 -3.21 3.04 -3.64 4.86 -4.51 4.08 -3.56 -3.21z"/>
  <path d="M833.20 166.59 c-3.12 -1.39 -3.73 -2.08 -3.73 -4.08 l0 -2.34 3.30 3.21 c2.08 2.08 4.08 3.21 5.55 3.21 1.30 0 2.60 0.43 2.86 0.87 0.87 1.48 -4.08 0.95 -7.98 -0.87z"/>
  <path d="M805.61 164.51 c-3.12 -3.12 -2.69 -3.99 1.82 -3.99 3.90 0 3.90 0 3.64 2.78 -0.35 3.64 -2.52 4.16 -5.47 1.21z"/>
  <path d="M837.63 164.51 c-2.86 -1.21 -5.73 -4.77 -7.29 -8.68 -0.69 -1.82 -0.52 -3.04 0.87 -5.81 1.82 -3.47 2.95 -3.99 5.21 -2.52 1.13 0.69 1.04 0.87 -0.17 0.87 -0.87 0 -1.56 0.35 -1.56 0.78 0 1.13 2.78 2 3.64 1.13 1.30 -1.30 -0.35 -3.73 -2.95 -4.25 -3.21 -0.61 -2.78 -1.74 1.82 -5.29 4.34 -3.30 6.16 -3.12 9.89 0.78 2.95 3.21 3.38 8.16 0.61 7.29 -2.17 -0.69 -3.56 0.09 -2.95 1.74 0.43 0.95 0.95 1.04 2.17 0.35 2.52 -1.30 3.30 -0.26 2.52 3.12 -0.78 3.38 -4.86 10.85 -6.07 10.85 -0.35 0 -1.21 0.17 -1.91 0.43 -0.61 0.17 -2.34 -0.17 -3.82 -0.78z m5.21 -2.78 c1.48 -0.52 1.91 -2.95 0.61 -2.95 -0.43 0 -2 -0.26 -3.47 -0.52 -2.08 -0.43 -2.69 -0.26 -2.69 0.78 0 0.78 0.69 1.82 1.56 2.26 1.74 1.04 2.17 1.13 3.99 0.43z m0.17 -5.47 c-0.26 -0.43 -1.30 -0.61 -2.26 -0.35 -2.43 0.61 -2.17 1.13 0.52 1.13 1.21 0 2 -0.35 1.74 -0.78z"/>
  <path d="M812.99 161.82 c-0.78 -0.95 -0.69 -1.74 0.69 -3.64 2.60 -3.73 2.86 -6.25 0.95 -8.16 -2.17 -2.17 -2.08 -2.52 0.43 -2.52 4.16 0 6.51 -1.65 8.68 -5.90 3.47 -6.85 10.32 -11.28 16.14 -10.41 3.47 0.43 2.52 2.60 -1.65 3.82 -4.60 1.30 -7.03 3.56 -9.54 8.68 -1.56 3.04 -1.91 4.77 -1.48 7.55 0.52 3.47 0.35 3.90 -2.69 6.85 -5.38 5.03 -9.37 6.33 -11.54 3.73z"/>
  <path d="M834.59 138.91 c1.13 -1.04 2.43 -1.82 3.04 -1.82 1.04 0 -0.43 1.21 -3.38 2.69 -1.39 0.69 -1.30 0.52 0.35 -0.87z"/>
 </g>
</svg>